mtllib materials.mtl
v -0.005557239 0.629713 -0.01068085
v -0.0005147904 0.6297163 -0.01185074
v 0.009920463 -0.6290591 0.02948883
v 0.004878014 -0.6290625 0.03065872
v 0.003267527 0.6296317 -0.01538372
v 0.01370278 -0.6291438 0.02595586
v 0.004776269 0.6294817 -0.02033308
v 0.01521151 -0.6292939 0.02100649
v 0.003607139 0.6293065 -0.02537265
v 0.01404239 -0.629469 0.01596692
v 7.343292E-05 0.6291531 -0.0291521
v 0.01050869 -0.6296225 0.01218748
v -0.004878014 0.6290626 -0.03065872
v 0.005557239 -0.629713 0.01068085
v -0.009920463 0.6290591 -0.02948883
v 0.0005147904 -0.6297164 0.01185074
v -0.01370278 0.6291439 -0.02595586
v -0.003267527 -0.6296317 0.01538372
v -0.01521151 0.6292939 -0.02100649
v -0.004776269 -0.6294817 0.02033308
v -0.01404239 0.6294691 -0.01596692
v -0.003607139 -0.6293065 0.02537265
v -0.01050867 0.6296224 -0.01218748
v -7.341802E-05 -0.6291531 0.0291521
v -0.02284831 1.698651 -0.05115268
v -0.01931459 1.698804 -0.04737324
v -0.02401742 1.698475 -0.05619225
v -0.0225087 1.698325 -0.06114161
v -0.01872638 1.698241 -0.06467459
v -0.01368393 1.698244 -0.06584448
v -0.008732483 1.698334 -0.06433785
v -0.005198777 1.698488 -0.06055841
v -0.004029647 1.698663 -0.05551884
v -0.005538389 1.698813 -0.05056947
v -0.009320706 1.698898 -0.0470365
v -0.01436315 1.698894 -0.04586661
vn 0.2258574 0.03384555 0.9735723
vn 0.6826608 0.02963767 0.7301341
vn 0.9565458 0.01748841 0.2910572
vn 0.9741251 0.0006531363 -0.2260083
vn 0.7306885 -0.01635714 -0.6825151
vn 0.2914642 -0.02898454 -0.9561425
vn -0.2258576 -0.03384555 -0.9735722
vn -0.6826608 -0.02963767 -0.7301341
vn -0.9565458 -0.01748841 -0.2910572
vn -0.9741251 -0.0006531357 0.2260083
vn -0.7306885 0.01635714 0.682515
vn -0.2914641 0.02898454 0.9561425
vn -0.7306878 0.01644285 0.6825137
vn 0.008285219 -0.9994268 0.03282321
vn -0.9741259 -0.0005853972 0.2260055
vn -0.9565461 -0.01745669 -0.2910583
vn -0.6826624 -0.02965046 -0.7301322
vn -0.2258557 -0.03389948 -0.9735708
vn 0.2914655 -0.02906511 -0.9561397
vn 0.7306891 -0.01644279 -0.6825123
vn 0.9741256 0.0005853471 -0.2260068
vn 0.9565459 0.01745671 0.2910589
vn 0.6826613 0.02965048 0.7301332
vn 0.2258556 0.03389948 0.9735708
vn -0.2914658 0.02906512 0.9561396
vn -0.008286638 0.9994273 -0.0328107
vt 0.130303 0.07667349
vt 0.1300802 0.07714073
vt 0.01639394 0.0229302
vt 0.01661674 0.02246296
vt 0.138449 0.06023277
vt 0.1382099 0.06069189
vt 0.02649797 0.002521619
vt 0.02673705 0.002062496
vt 0.1366594 0.07068554
vt 0.1363327 0.07108708
vt 0.03863226 -0.008398553
vt 0.03895893 -0.008800091
vt 0.07378054 0.1384712
vt 0.0732738 0.1385769
vt 0.04756204 0.01527948
vt 0.04806877 0.01517381
vt -0.06489833 0.1431094
vt -0.06528924 0.1427701
vt 0.01726963 0.04765241
vt 0.01766055 0.04799172
vt -0.1130562 0.1050682
vt -0.1133173 0.1046212
vt -0.004563175 0.04109273
vt -0.004302082 0.0415397
vt -0.1300802 0.07714072
vt -0.130303 0.07667348
vt -0.01661674 0.02246295
vt -0.01639395 0.02293019
vt -0.1382099 0.06069189
vt -0.138449 0.06023277
vt -0.02673705 0.002062497
vt -0.02649797 0.002521619
vt -0.1363327 0.07108708
vt -0.1366594 0.07068554
vt -0.03895894 -0.008800091
vt -0.03863226 -0.008398553
vt -0.0732738 0.1385769
vt -0.07378054 0.1384712
vt -0.04806877 0.0151738
vt -0.04756204 0.01527948
vt 0.06528924 0.1427701
vt 0.0648983 0.1431094
vt -0.01766056 0.04799172
vt -0.01726964 0.0476524
vt 0.1133173 0.1046212
vt 0.1130562 0.1050682
vt 0.004302086 0.04153969
vt 0.004563178 0.04109273
vt 0.06488635 0.1431138
vt 0.06527731 0.1427745
vt 0.1353961 0.2235705
vt 0.1350051 0.2239098
vt 0.04574538 0.008639595
vt 0.04579661 0.009154692
vt 0.04558342 0.00962639
vt 0.04516294 0.009928297
vt 0.04464784 0.009979518
vt 0.04417614 0.009766327
vt 0.04387423 0.00934585
vt 0.04382301 0.008830751
vt 0.04403621 0.008359054
vt 0.04445668 0.008057145
vt 0.04497178 0.008005926
vt 0.04544348 0.008219118
vt -0.07377695 0.138474
vt -0.0732702 0.1385797
vt -0.09510086 0.2433082
vt -0.0956076 0.2432026
vt -0.1366583 0.07068981
vt -0.1363316 0.07109135
vt -0.2193095 0.138614
vt -0.2196362 0.1382125
vt -0.1384488 0.06023186
vt -0.1382097 0.06069098
vt -0.233092 0.1101076
vt -0.2333311 0.1096485
vt -0.1303005 0.07667312
vt -0.1300777 0.07714036
vt -0.2266376 0.1231929
vt -0.2268604 0.1227256
vt -0.1133107 0.1046249
vt -0.1130496 0.1050719
vt -0.2054195 0.1590389
vt -0.2056806 0.1585919
vt -0.0652771 0.1427748
vt -0.06488615 0.1431141
vt -0.1350048 0.2239103
vt -0.1353957 0.223571
vt 0.07326987 0.13858
vt 0.07377661 0.1384743
vt 0.09560697 0.2432029
vt 0.09510024 0.2433086
vt 0.1363316 0.07109135
vt 0.1366583 0.07068981
vt 0.2196363 0.1382125
vt 0.2193096 0.138614
vt 0.1382097 0.06069098
vt 0.1384487 0.06023185
vt 0.233331 0.1096484
vt 0.233092 0.1101076
vt 0.1300776 0.07714032
vt 0.1303004 0.07667308
vt 0.2268603 0.1227256
vt 0.2266375 0.1231928
vt 0.1130494 0.1050718
vt 0.1133105 0.1046249
vt 0.2056805 0.1585919
vt 0.2054194 0.1590388
vt -0.04543576 0.008227965
vt -0.04496406 0.008014774
vt -0.04444896 0.008065999
vt -0.04402849 0.008367907
vt -0.0438153 0.008839606
vt -0.04386652 0.009354704
vt -0.04416844 0.009775179
vt -0.04464013 0.009988368
vt -0.04515523 0.009937146
vt -0.0455757 0.009635235
vt -0.04578889 0.009163536
vt -0.04573767 0.008648438
o group1299206683
g mesh1299206683
usemtl mat20
f 4/4/1 3/3/1 2/2/1 1/1/1
f 3/8/2 6/7/2 5/6/2 2/5/2
f 6/12/3 8/11/3 7/10/3 5/9/3
f 8/16/4 10/15/4 9/14/4 7/13/4
f 10/20/5 12/19/5 11/18/5 9/17/5
f 12/24/6 14/23/6 13/22/6 11/21/6
f 14/28/7 16/27/7 15/26/7 13/25/7
f 16/32/8 18/31/8 17/30/8 15/29/8
f 18/36/9 20/35/9 19/34/9 17/33/9
f 20/40/10 22/39/10 21/38/10 19/37/10
f 22/44/11 24/43/11 23/42/11 21/41/11
f 24/48/12 4/47/12 1/46/12 23/45/12
f 26/52/13 25/51/13 21/50/13 23/49/13
f 24/64/14 22/63/14 20/62/14 18/61/14 16/60/14 14/59/14 12/58/14 10/57/14 8/56/14 6/55/14 3/54/14 4/53/14
f 25/68/15 27/67/15 19/66/15 21/65/15
f 27/72/16 28/71/16 17/70/16 19/69/16
f 28/76/17 29/75/17 15/74/17 17/73/17
f 29/80/18 30/79/18 13/78/18 15/77/18
f 30/84/19 31/83/19 11/82/19 13/81/19
f 31/88/20 32/87/20 9/86/20 11/85/20
f 32/92/21 33/91/21 7/90/21 9/89/21
f 33/96/22 34/95/22 5/94/22 7/93/22
f 34/100/23 35/99/23 2/98/23 5/97/23
f 35/104/24 36/103/24 1/102/24 2/101/24
f 36/108/25 26/107/25 23/106/25 1/105/25
f 36/120/26 35/119/26 34/118/26 33/117/26 32/116/26 31/115/26 30/114/26 29/113/26 28/112/26 27/111/26 25/110/26 26/109/26
