<svg id="Layer_1" data-name="Layer 1" xmlns="http://www.w3.org/2000/svg" xmlns:xlink="http://www.w3.org/1999/xlink" viewBox="0 0 535.19 202.1"><defs><style>.cls-1{fill:#636;}.cls-2{fill:#92278f;}.cls-3{fill:url(#linear-gradient);}.cls-4,.cls-6{fill:#989936;}.cls-5{fill:none;stroke:#989936;stroke-miterlimit:10;stroke-width:4px;}.cls-6{fill-rule:evenodd;}</style><linearGradient id="linear-gradient" x1="39.5" y1="285.75" x2="508.84" y2="285.75" gradientTransform="matrix(1, 0, 0, -1, 0, 388.11)" gradientUnits="userSpaceOnUse"><stop offset="0.01" stop-color="#9f248f"/><stop offset="0.3" stop-color="#9d268c"/><stop offset="0.5" stop-color="#952f88"/><stop offset="0.67" stop-color="#8a3a84"/><stop offset="0.83" stop-color="#7a467d"/><stop offset="0.97" stop-color="#654f74"/><stop offset="0.99" stop-color="#625072"/></linearGradient></defs><title>magiccarpet9</title><path class="cls-1" d="M515.38,25.67c6.11.94,16.28,5,21,9.39a18.64,18.64,0,0,1,4,4.84c-.88,1.74-3.36,3.67-6.28,5.49L531,42.78l.62,4.09a117.62,117.62,0,0,1-11.24,5.39s.25-7.7-2.47-12.89c-3.83-5.3-3.22-6-8.95-11.88C508.16,26.07,513.82,25.25,515.38,25.67Z" transform="translate(-5.2 -7.55)"/><path class="cls-2" d="M31.88,168.78C25,170.61,14,176.46,9.17,182.06a21.26,21.26,0,0,0-4,6c1.21,1.87,4.27,3.76,7.82,5.46l3.26-3.35-.2,4.72a136.08,136.08,0,0,0,13.45,4.74s-1.23-8.72,1.21-15c3.7-6.5,2.93-7.18,8.71-14.62C40.13,168.34,33.6,168.11,31.88,168.78Z" transform="translate(-5.2 -7.55)"/><path class="cls-3" d="M323.92,49.11c-49.08,0-132.1-36-182.15-28.89C101.52,67.37,72,110.77,39.5,169.34c20.72-9.35,48.14-12.42,78.62-16,55.56-6.47,108.75,8.76,129.11,16l.55-.21c27.54,8.56,56.8,14.53,82.23,15.66,82.08,3.64,110.91-9.64,119.48-11.16,0,0,24.6-88.54,59.35-150.25C508.85,23.38,426.66,41,323.92,49.11Z" transform="translate(-5.2 -7.55)"/><path class="cls-2" d="M134.27,12.14c-5.54-2.75-16.18-5.3-22.57-4.41a18.67,18.67,0,0,0-6.07,1.64c-.28,1.93.63,4.93,2,8.1l4.07-.32-2.86,3A117.84,117.84,0,0,0,114.9,31s4.23-6.43,9.44-9.11c6.18-2.13,6.07-3,14.16-4.56C139.94,16.63,135.78,12.7,134.27,12.14Z" transform="translate(-5.2 -7.55)"/><circle class="cls-4" cx="133.6" cy="11.74" r="6.27"/><circle class="cls-4" cx="34.3" cy="161.79" r="7.35"/><circle class="cls-4" cx="503.65" cy="18.01" r="6.27"/><path class="cls-1" d="M458.39,178.8c6.84,1.83,17.9,7.68,22.71,13.28a21.26,21.26,0,0,1,4,6c-1.21,1.87-4.27,3.76-7.82,5.46L474,200.19l.2,4.72a136.08,136.08,0,0,1-13.45,4.74s1.23-8.72-1.21-15c-3.7-6.5-2.93-7.18-8.71-14.62C450.14,178.36,456.67,178.14,458.39,178.8Z" transform="translate(-5.2 -7.55)"/><circle class="cls-4" cx="445.57" cy="169.13" r="7.35"/><path class="cls-5" d="M323.18,58.1c-41.61-1-122.46-31-165-26.05-35,38.5-52.12,68.85-80.79,117,17.75-7.38,53.76-7.29,74.38-8.15,47.35-2,87,9.45,104.11,15.88l.47-.16c23.18,7.67,47.87,13.22,69.41,14.66,69.51,4.64,87.74-5.48,95-6.59,0,0,16.52-73.21,47.16-124C467.93,40.75,410.42,53.33,323.18,58.1Z" transform="translate(-5.2 -7.55)"/><path class="cls-4" d="M163.53,44.06c.24-.24.85-1.48,2-1s1.17,1.9.3,2.21-.56-1.45-1.89-.82C163.09,44.9,163.4,44.2,163.53,44.06Z" transform="translate(-5.2 -7.55)"/><path class="cls-4" d="M164,45.68a3.75,3.75,0,0,1-.78,1.11c-.4.33-.62.09-.41-.12s.61-.7.89-1.09S164.21,45.31,164,45.68Z" transform="translate(-5.2 -7.55)"/><path class="cls-4" d="M163,47.59c-.17.27-1.09,0-.87-.34S163.16,47.31,163,47.59Z" transform="translate(-5.2 -7.55)"/><path class="cls-4" d="M164.4,46.78a3,3,0,0,1,0-1.26c0-.4.3-.61.33,0a9.06,9.06,0,0,0,.14,1.27C164.89,47,164.55,47.2,164.4,46.78Z" transform="translate(-5.2 -7.55)"/><path class="cls-4" d="M165.1,47.5c0,.43-1,.41-1,.1S165.13,47.07,165.1,47.5Z" transform="translate(-5.2 -7.55)"/><path class="cls-4" d="M163.43,44.92c.6-.33.55,0,.17.23a4.47,4.47,0,0,1-1.25.71c-.5.14-.53-.19-.24-.3S163,45.16,163.43,44.92Z" transform="translate(-5.2 -7.55)"/><path class="cls-4" d="M161.25,45.8c.4-.27.75.54.46.72S160.84,46.07,161.25,45.8Z" transform="translate(-5.2 -7.55)"/><path class="cls-4" d="M156.7,51.83c-.07-.49-.8-1-1.88-.84s-1.72-1-1.64-2.28,1.49-2,1.15-3.25c-.45-1.72,1.65-3.65,3.22-4a3.35,3.35,0,0,1,4,1.33c1,1.36.76,2.2-1.48.65-1-.68-.56.36.5,1.39.61.59.09.73-.61.52a6.09,6.09,0,0,1-1.95-.59c-.79-.51-.7.15-.11.56a4.13,4.13,0,0,0,1.7.7c1.2.11-.08.86-2,.9-.9,0-.73.47,0,.56a3.67,3.67,0,0,0,2.43-.29c2-1,1.49,1.32,0,3.32S156.84,52.77,156.7,51.83Z" transform="translate(-5.2 -7.55)"/><path class="cls-4" d="M171,49c-1.53.52-4.3-1.44-4.71-2.13s-.33-1.54.61-.84,4,.19,2.63,0c-1.78-.22-2-1.13-.8-1a5.58,5.58,0,0,0,3.39-.36c.88-.52,1-1.09.23-.6a3.72,3.72,0,0,1-2.68.45c-1.14-.13-2.16-.25-.64-.76a9,9,0,0,0,3.26-1.62c1.29-1.07.7-1.45-.45-.29a7.39,7.39,0,0,1-3.73,1.77c-1,0-1.22-.31-.44-.54a7.17,7.17,0,0,0,3.19-2.74,3.08,3.08,0,0,1,1.54-1.09,1.5,1.5,0,0,0,.15,1c.72,1.33,1.51-.21,3,.5a1,1,0,0,0,.23.08c.25.95,1.9,1.27.9,2.6-1.24,1.66.11,2.21-1.51,3.14-1.17.67-1.74,0-2.14.37S172.5,48.44,171,49Z" transform="translate(-5.2 -7.55)"/><path class="cls-4" d="M160.21,52.79A5.41,5.41,0,0,1,161.79,49c.77-.72,1.67-1.25.71.33s.13,1.15.48.28,1-1.37.93-.14,1.89,2.09,1.26.61-.52-2.56.1-1.32,1.61,1,1.23.37a1.85,1.85,0,0,0-1-.89c-.32-.18-.13-.7.62-.4.6.24,3.18,1.66,3.63,2.45a2.22,2.22,0,0,1-1.25,2.83c-1.18.62-2.56.47-3.35,1.24C162.24,57.12,160.37,55,160.21,52.79Z" transform="translate(-5.2 -7.55)"/><path class="cls-4" d="M166.47,42.83c-.71-.09-.09-2.5-.54-3.54s-.88-1.09-.5.33,0,2.32-.36,2.15-.3-1.12-.59-2.14-1.09-1.25-.39.66.09,2.64-.81,3.07-.72-.8-.87-1.67-1.74-.3-2.54-1.21a2.56,2.56,0,0,1,.27-2.38A11,11,0,0,1,162,36.17a.28.28,0,0,0,0,.09,6.45,6.45,0,0,1,.58-.31c2-1,2.76.1,3,.27s.11,1.86,1.68.4,3.57.48,3.32,2.17S167.41,42.94,166.47,42.83Z" transform="translate(-5.2 -7.55)"/><path class="cls-4" d="M179,51.57a.88.88,0,0,0,1.4.08c.83-.71.87-1.69.26-1.65s-.42,1.19-1.35,1.14C178.65,51.11,178.86,51.51,179,51.57Z" transform="translate(-5.2 -7.55)"/><path class="cls-4" d="M179.31,50.3a1.36,1.36,0,0,0-.52-.55c-.27-.12-.43.12-.29.21a4.5,4.5,0,0,1,.6.5C179.35,50.71,179.46,50.49,179.31,50.3Z" transform="translate(-5.2 -7.55)"/><path class="cls-4" d="M178.65,49.25c-.11-.14-.77.29-.62.5S178.76,49.39,178.65,49.25Z" transform="translate(-5.2 -7.55)"/><path class="cls-4" d="M179.62,49.4a2.12,2.12,0,0,0-.05.89c0,.27.2.34.23-.09a8.59,8.59,0,0,1,.12-.93C180,49.08,179.74,49.06,179.62,49.4Z" transform="translate(-5.2 -7.55)"/><path class="cls-4" d="M180.13,48.68c0-.3-.69,0-.68.22S180.14,49,180.13,48.68Z" transform="translate(-5.2 -7.55)"/><path class="cls-4" d="M178.9,51c.41,0,.39-.15.13-.21a1.93,1.93,0,0,0-.86-.12c-.35.05-.38.29-.18.29A7.81,7.81,0,0,1,178.9,51Z" transform="translate(-5.2 -7.55)"/><path class="cls-4" d="M177.39,51c.28.07.54-.6.34-.65S177.11,51,177.39,51Z" transform="translate(-5.2 -7.55)"/><path class="cls-4" d="M174.32,48.14A1.84,1.84,0,0,1,173,49.29a2.07,2.07,0,0,0-1.2,2.09c0,.88,1,.94.74,1.94-.36,1.34,1.08,2.07,2.17,1.88a4,4,0,0,0,2.83-2.13c.7-1.24.58-1.77-1,0-.71.78-.39-.08.38-1.12.44-.6.08-.54-.42-.18a7.67,7.67,0,0,0-1.39,1c-.57.59-.49.1-.06-.36a5.54,5.54,0,0,1,1.21-1c.85-.43,0-.58-1.4,0-.64.26-.5-.11,0-.4a2.88,2.88,0,0,1,1.7-.52c1.41.09,1.08-1.38,0-2.33S174.44,47.44,174.32,48.14Z" transform="translate(-5.2 -7.55)"/><path class="cls-4" d="M184.3,45.9c-1.06.09-3.06,2.3-3.36,2.9s-.27,1.18.41.41,2.83-1.33,1.85-.8c-1.26.68-1.43,1.39-.58.92a4.43,4.43,0,0,1,2.38-.76c.61.1.69.47.15.35a2.69,2.69,0,0,0-1.87.48c-.81.43-1.53.82-.46.72a4.47,4.47,0,0,1,2.26.17c.89.36.46.81-.32.33a3.7,3.7,0,0,0-2.58-.13c-.71.29-.87.58-.32.51A2.79,2.79,0,0,1,184,52a1.27,1.27,0,0,0,1.06.31,1.27,1.27,0,0,1,.13-.76c.54-1.15,1.06-.3,2.16-1.26l.16-.12c.2-.74,1.37-1.46.69-2.1-.84-.79.13-1.59-1-1.76-.81-.12-1.23.55-1.5.38S185.36,45.81,184.3,45.9Z" transform="translate(-5.2 -7.55)"/><path class="cls-4" d="M176.81,46.42a2.34,2.34,0,0,0,1,2.21c.53.28,1.14.38.5-.45s.12-.85.35-.34.66.67.65-.18,1.37-2,.9-.8-.42,2,0,.9,1.16-1.21.87-.63a2.63,2.63,0,0,1-.71.92c-.23.22-.11.53.42.1a16.94,16.94,0,0,0,2.61-2.81,1.05,1.05,0,0,0-.82-1.61c-.81-.08-1.79.43-2.33.13C178.33,42.77,177,44.85,176.81,46.42Z" transform="translate(-5.2 -7.55)"/><path class="cls-4" d="M181,51.56c-.5.27-.12,1.78-.46,2.65s-.64,1-.34-.08.09-1.65-.2-1.41-.24.88-.46,1.68-.8,1.2-.26-.35.12-1.88-.5-1.92-.52.77-.65,1.43-1.23.73-1.82,1.61a1.57,1.57,0,0,0,.14,1.59,4,4,0,0,0,1.26.81.2.2,0,0,1,0-.07l.4,0a2.15,2.15,0,0,0,2.09-1.08c.14-.18.12-1.34,1.19-.78s2.52-1.4,2.39-2.52A2.54,2.54,0,0,0,181,51.56Z" transform="translate(-5.2 -7.55)"/><path class="cls-4" d="M155.18,58.58c.16-.13.65-.85,1.27-.42s.5,1.31,0,1.42-.18-1-1-.7C154.83,59.06,155.08,58.65,155.18,58.58Z" transform="translate(-5.2 -7.55)"/><path class="cls-4" d="M155.28,59.64a2.32,2.32,0,0,1-.56.62c-.27.17-.37,0-.23-.11a8.06,8.06,0,0,0,.63-.6C155.39,59.25,155.44,59.43,155.28,59.64Z" transform="translate(-5.2 -7.55)"/><path class="cls-4" d="M154.51,60.74c-.12.16-.64-.07-.47-.3S154.63,60.59,154.51,60.74Z" transform="translate(-5.2 -7.55)"/><path class="cls-4" d="M155.41,60.37a1.9,1.9,0,0,1,.11-.79c.06-.25.24-.35.19,0a6.29,6.29,0,0,0,0,.81C155.67,60.57,155.46,60.65,155.41,60.37Z" transform="translate(-5.2 -7.55)"/><path class="cls-4" d="M155.75,60.89c-.06.27-.62.16-.58,0S155.81,60.62,155.75,60.89Z" transform="translate(-5.2 -7.55)"/><path class="cls-4" d="M155,59.11c.38-.15.32,0,.08.16a2.28,2.28,0,0,1-.8.32c-.31,0-.29-.17-.11-.21A7.72,7.72,0,0,0,155,59.11Z" transform="translate(-5.2 -7.55)"/><path class="cls-4" d="M153.67,59.45c.26-.13.39.41.2.5S153.41,59.58,153.67,59.45Z" transform="translate(-5.2 -7.55)"/><path class="cls-4" d="M150.42,62.81c0-.32-.37-.71-1-.71s-.91-.79-.73-1.59,1.06-1.1,1-1.94c-.09-1.12,1.33-2.14,2.28-2.23a1.91,1.91,0,0,1,2.19,1.22c.42.94.23,1.45-.93.27-.51-.53-.36.17.16.92.3.43,0,.47-.41.27a3.39,3.39,0,0,1-1.08-.56c-.41-.4-.42,0-.12.34a2.44,2.44,0,0,0,.92.6c.69.18-.13.53-1.27.38-.53-.07-.47.23,0,.36a2.06,2.06,0,0,0,1.45,0c1.29-.43.74,1-.35,2.09S150.41,63.42,150.42,62.81Z" transform="translate(-5.2 -7.55)"/><path class="cls-4" d="M159,62.37c-.94.18-2.37-1.32-2.54-1.79s0-1,.44-.47,2.33.5,1.53.26c-1-.31-1.05-.9-.37-.69a3.05,3.05,0,0,0,2,.1c.57-.24.7-.59.2-.35a2.07,2.07,0,0,1-1.61,0c-.65-.19-1.24-.36-.3-.54a5.07,5.07,0,0,0,2.06-.71c.86-.55.55-.85-.23-.22a4.23,4.23,0,0,1-2.35.76c-.59-.09-.68-.31-.2-.38A4.25,4.25,0,0,0,159.8,57a1.9,1.9,0,0,1,1-.54,1,1,0,0,0,0,.65c.29.91.9,0,1.73.61l.13.07c.05.62,1,1,.27,1.72-.89.92-.15,1.4-1.19,1.83-.75.31-1-.19-1.28,0S160,62.19,159,62.37Z" transform="translate(-5.2 -7.55)"/><path class="cls-4" d="M152.37,63.75a3.55,3.55,0,0,1,1.3-2.25c.52-.38,1.1-.63.38.28s0,.74.26.22.71-.77.55,0,.89,1.5.67.5-.05-1.66.19-.82.84.81.68.35a1.13,1.13,0,0,0-.49-.65c-.17-.14,0-.46.4-.2a7.34,7.34,0,0,1,1.88,1.89,1.45,1.45,0,0,1-1,1.66c-.75.28-1.54,0-2.08.46C153.12,66.67,152.25,65.13,152.37,63.75Z" transform="translate(-5.2 -7.55)"/><path class="cls-4" d="M157,58.08c-.4-.12.19-1.58,0-2.28s-.4-.77-.32.16-.2,1.47-.42,1.32-.07-.74-.13-1.4-.51-.89-.3.38-.21,1.67-.78,1.86-.34-.57-.34-1.13-1-.36-1.36-1a1.74,1.74,0,0,1,.39-1.47,5.27,5.27,0,0,1,1.27-1l.37-.14c1.3-.45,1.6.33,1.7.46s-.12,1.18.94.41,2,.64,1.72,1.68S157.55,58.24,157,58.08Z" transform="translate(-5.2 -7.55)"/><path class="cls-4" d="M144.61,77.94s2.21,8.52-2.26,11.31c-3.18,2-4.3.63-4.3.63s.35,1.3.9,1.47-.19.17-.19.17a3.34,3.34,0,0,1-3.43,0s.35,1.82,1.14,1.94c0,0-5.28,1.72-6.09,4.06a16.88,16.88,0,0,1,5.09-2.29C138.32,94.49,150.57,90.41,144.61,77.94Z" transform="translate(-5.2 -7.55)"/><path class="cls-4" d="M121.94,111.59c-.5.35-1.68-.18-1-1.41a1.45,1.45,0,0,0-1,.49c-.87,1.17-2.68,2.29-3.41-.09,0,0,1.4,1.11,2.08.48,1-.89,1.8-2.1,3.77-2.36C122.07,109.19,120.54,111.31,121.94,111.59Z" transform="translate(-5.2 -7.55)"/><path class="cls-4" d="M182.81,68.19s-.72,2.53-2.14,2.35c0,0,.17-.63-.18-.68s-1.41,1.21-2.16.21c0,0,.17-.9,2.28-2.06,0,0-1,0,.06-1.11s2.37-.83,2.19-2.85,1.94,3.24-1.51,4.42c0,0-1.38,1.13.16.54S182.81,68.19,182.81,68.19Z" transform="translate(-5.2 -7.55)"/><path class="cls-4" d="M149.35,88.38s.15,2.43,1.66,1.89c0,0,0-.6.34-.74s1.17.9,2.17-.31c0,0,0-.88-1.87-1.56,0,0,1-.28.19-1.12s-2.24-.27-1.59-2.39-2.75,3.81.53,4.17c0,0,1.15.82-.29.59S149.35,88.38,149.35,88.38Z" transform="translate(-5.2 -7.55)"/><path class="cls-4" d="M193.35,56.94s2.15,1.07,5.91,0a6.3,6.3,0,0,0,4.81-6.5,4,4,0,0,0-2.35-3.13,7.79,7.79,0,0,1,.73,4.89,2.16,2.16,0,0,0-1.38-.5,4.79,4.79,0,0,1,.44,1.9c.09,1.28-1.56,2.5-2.92,3C195.06,57.68,193.35,56.94,193.35,56.94Z" transform="translate(-5.2 -7.55)"/><path class="cls-4" d="M154.83,80.49a4.73,4.73,0,0,0,2,3.24c1.83,1.37,4.07.33,5.34-1.2a4.4,4.4,0,0,0,1-3.16,9.2,9.2,0,0,1-2.57,3.31,1.73,1.73,0,0,0-.17-1.06,5.88,5.88,0,0,1-.95,1.37,2.09,2.09,0,0,1-2.67.14A4.13,4.13,0,0,1,154.83,80.49Z" transform="translate(-5.2 -7.55)"/><path class="cls-4" d="M208.76,54.77c.06-.16,3.37-.06,3.4.95a4.26,4.26,0,0,0,2,2.64,2.15,2.15,0,0,0,.57-2s.87.45.44,2.69a4.57,4.57,0,0,0,.77,3.49,6.54,6.54,0,0,0,.75-2.25s-.3,2.36.36,2.9c.07,0,0,2,.3,1.72a7.68,7.68,0,0,0,.47-2.62c-.16-.86,0-.81-.2-3.49a5.27,5.27,0,0,0-2.77-3.93A7.67,7.67,0,0,0,208.76,54.77Z" transform="translate(-5.2 -7.55)"/><path class="cls-4" d="M160.15,71.36a8.54,8.54,0,0,1-.86-2.25c-.14-.54-.43,1.6-.09,2a.68.68,0,0,1,.26.56,1,1,0,0,0,.12.42c.1.12.29.07.39.16s.08.56.31.75.55-.1.7.06a4.69,4.69,0,0,0,2.57,1.52,3.8,3.8,0,0,0,2.76-.54c.1-.09.05-.15-.05-.15a3.69,3.69,0,0,1-2.07.46c-.89-.12-1.29-.63-1.6-1.52-.12-.35.07-.66-.16-.93s-.37-.19-.34-.64.19-.68-.1-.91-.57-.07-.61-.61c0-.38.1-.9-.12-1.21-.35-.5-1.45-.28-1.26.33a15.62,15.62,0,0,0,.85,2.38,14.69,14.69,0,0,0,1.24,2.06C162.16,73.34,161.18,73,160.15,71.36Z" transform="translate(-5.2 -7.55)"/><path class="cls-4" d="M159.48,68.38a5.67,5.67,0,0,0,.39,1.88,6.71,6.71,0,0,0,.82,1.59,6.09,6.09,0,0,0,.78.85s-.16-.29-.63-1a7.26,7.26,0,0,1-1-2.35,4.6,4.6,0,0,1-.1-1.67,12.66,12.66,0,0,1,.44-1.52A3.39,3.39,0,0,0,159.48,68.38Z" transform="translate(-5.2 -7.55)"/><path class="cls-4" d="M136.48,102.45A10.87,10.87,0,0,1,137,99.8c.17-.6-1.15,1.37-1.08,1.9a1,1,0,0,1-.09.69,1.31,1.31,0,0,0-.12.47c0,.17.18.22.2.35.05.29-.23.6-.15.89s.47.17.5.4a4.77,4.77,0,0,0,1.15,2.78,2.74,2.74,0,0,0,2.36.84c.12,0,.12-.13,0-.17a2.61,2.61,0,0,1-1.8-.57c-.61-.56-.64-1.26-.42-2.29.09-.41.39-.61.36-1s-.18-.38.07-.8.49-.58.39-1-.39-.35-.14-.9a3.6,3.6,0,0,0,.54-1.25c0-.67-.95-1-1.12-.31a20.74,20.74,0,0,0-.59,2.77,20.09,20.09,0,0,0-.13,2.66C137,105.41,136.44,104.53,136.48,102.45Z" transform="translate(-5.2 -7.55)"/><path class="cls-4" d="M137.52,99.17a7.93,7.93,0,0,0-.68,2,9.66,9.66,0,0,0-.2,2,7.51,7.51,0,0,0,.15,1.23s0-.36,0-1.27a10,10,0,0,1,.47-2.81,6.63,6.63,0,0,1,.79-1.7,13.23,13.23,0,0,1,1.12-1.28A4,4,0,0,0,137.52,99.17Z" transform="translate(-5.2 -7.55)"/><path class="cls-4" d="M185.94,69.78a7.55,7.55,0,0,1-1.89-1.41c-.39-.36.31,1.46.81,1.6a.7.7,0,0,1,.52.33,1,1,0,0,0,.31.28c.16,0,.33-.07.46,0,.29.06.34.41.65.46s.51-.33.73-.27a6.12,6.12,0,0,0,3.28.06,4.63,4.63,0,0,0,2.52-1.65c.06-.11,0-.15-.12-.1a4.43,4.43,0,0,1-1.86,1.29,2.23,2.23,0,0,1-2.3-.5c-.29-.22-.23-.55-.58-.67s-.46,0-.64-.36-.13-.62-.52-.68-.6.2-.89-.22-.32-.75-.67-.91c-.58-.25-1.59.42-1.12.82a14.84,14.84,0,0,0,1.94,1.51,15.36,15.36,0,0,0,2.2,1.09A5.09,5.09,0,0,1,185.94,69.78Z" transform="translate(-5.2 -7.55)"/><path class="cls-4" d="M183.9,67.7A5,5,0,0,0,185.15,69a6.53,6.53,0,0,0,1.55.9,6.92,6.92,0,0,0,1.18.33s-.29-.16-1.08-.49a6.89,6.89,0,0,1-2.07-1.43,3.73,3.73,0,0,1-.87-1.28,9.81,9.81,0,0,1-.26-1.4A2.65,2.65,0,0,0,183.9,67.7Z" transform="translate(-5.2 -7.55)"/><path class="cls-6" d="M174.23,57.62a6.37,6.37,0,0,0-1.61-1.19c-3.42-1.85-3.24-2.82-3.64-2.72-.75.18-.72.22-1,.52a18.76,18.76,0,0,0-4.11,4,8.3,8.3,0,0,0-1.07,2.33c0,.15-.29.7-.12.76a1.62,1.62,0,0,0,1.05-.2,4.85,4.85,0,0,0-.55,2.41c0,.13,0,.47.17.44a2.47,2.47,0,0,0,.84-.32c-.26,1-.74,3.23.89,2.57a7.25,7.25,0,0,0,.15,1.23,2.77,2.77,0,0,0,.66.93c.19.24.11.32.47,0a4.32,4.32,0,0,0,.79-.81c.25.64.39,1.5,1,1.9s.62.53,1,0,.56-.15.75.14a4.43,4.43,0,0,0,3.44,2.2,6.23,6.23,0,0,1-1.45-2.64c0-.33.19-2.13.81-2.14.21,0,.87.13,1-.16a2.44,2.44,0,0,0,.12-.84,3.5,3.5,0,0,0-.65-2c.42-.2.85-.37,1.25-.6.57-.33-.13-2.68-.88-3.62.16.2,1,.09,1.16,0A3.82,3.82,0,0,0,174.23,57.62Zm-.94.94s-.1,0-.12,0a7.76,7.76,0,0,0-2.34-1.7c-.35-.16-1.87-.86-2.44-1-.08.55-.14,1.08-.18,1.63l0,.37.15,0,.88.26a9.29,9.29,0,0,1,2.58,1.28,4.34,4.34,0,0,1,1.12,1s0,.09,0,.12a.09.09,0,0,1-.12,0,10.24,10.24,0,0,0-2.28-1.39,11.22,11.22,0,0,0-2.33-.79c0,.48,0,1,0,1.42,0,.12,0,.31,0,.46s0,.17.08.17l1,.29a10.09,10.09,0,0,1,2.55,1.19,9.93,9.93,0,0,1,1.25,1,.08.08,0,0,1,0,.12.1.1,0,0,1-.13,0,19.62,19.62,0,0,0-2.25-1.25c-.39-.18-.79-.35-1.2-.5a10.71,10.71,0,0,0-1.18-.3c.07.52.21,1,.31,1.54h0a.17.17,0,0,0,0,.07s0,0,0,0l.36.12c.25.09.52.16.78.26a9.64,9.64,0,0,1,2.58,1.52,6.77,6.77,0,0,1,.56.51.08.08,0,0,1,0,.12.11.11,0,0,1-.13,0,21.34,21.34,0,0,0-2-1.22,10.45,10.45,0,0,0-2-.76c.15.49.29,1,.44,1.48,0,.15.09.42.16.42l1,.3a4.13,4.13,0,0,1,2,1,.08.08,0,0,1,0,.12.1.1,0,0,1-.12,0,10.06,10.06,0,0,0-2.68-1c.37,1,.76,2,1.17,2.9h0a.09.09,0,0,1-.05.12.08.08,0,0,1-.12,0c-.48-.93-.91-1.88-1.33-2.84a8.1,8.1,0,0,0-.29,1.5c-.06.6-.08,1.19-.1,1.78a.13.13,0,0,1-.09.11c-.05,0-.09,0-.09-.06a9.8,9.8,0,0,1,.34-3.88c-.25-.59-.51-1.16-.72-1.77a12.63,12.63,0,0,0-1.83,3.6.11.11,0,0,1-.1.09.07.07,0,0,1-.08-.07,7,7,0,0,1,1-2.51,7.56,7.56,0,0,0,.85-1.69h0a3.71,3.71,0,0,1-.08-.43c0-.3-.08-.66-.12-1a1.43,1.43,0,0,0,0-.22,43.14,43.14,0,0,0-2.77,4.31.11.11,0,0,1-.12.07.06.06,0,0,1-.05-.09A27.06,27.06,0,0,1,167.48,61l.28-.41a.28.28,0,0,0,0-.08l0-.14v0q0-.33-.06-.69c0-.38,0-.75,0-1.13a36,36,0,0,0-3.77,4.56.13.13,0,0,1-.12.06.07.07,0,0,1,0-.1,20,20,0,0,1,3.78-5,1.38,1.38,0,0,0,.18-.2,2.33,2.33,0,0,0,0-.32c0-.51.09-1,.17-1.51a55.92,55.92,0,0,0-4.15,4.29.1.1,0,0,1-.12,0s-.05-.06,0-.11a48,48,0,0,1,4.37-4.89c.15-.14.16-.45.22-.71s.06-.23.1-.35a.11.11,0,0,1,.08-.08h0a.94.94,0,0,0,.27-.06h0a.1.1,0,0,1,.09,0,.08.08,0,0,1,0,.08c-.07.25-.13.5-.19.75,0,.07-.08.25-.09.31.27.15,2.71,1.19,3.45,1.69a6.86,6.86,0,0,1,1.41,1.44A.18.18,0,0,1,173.29,58.56Z" transform="translate(-5.2 -7.55)"/><path class="cls-4" d="M175,57.41c-.3-.08-.11,1.53.5,2.35a6.19,6.19,0,0,0,3,1.8,23.93,23.93,0,0,1,3.26,1.27,3.16,3.16,0,0,1,1.4,1.36,3.73,3.73,0,0,1,.35,2,25.63,25.63,0,0,1-.7,3.72,6.17,6.17,0,0,0-.07,3.48,2.27,2.27,0,0,0,1,1.14,2.34,2.34,0,0,1-.8-.88,6.3,6.3,0,0,1,.06-3.8c.35-1.34,1.2-4.08.33-5.79s-3.69-2.31-5-2.72a5.1,5.1,0,0,1-2.92-2.26C175,58.23,175.28,57.5,175,57.41Z" transform="translate(-5.2 -7.55)"/><path class="cls-4" d="M147.38,66.34c0,.51.7,3-1,4.37s-1.7,1.86-1.69,2.31c0,0-.81-1.4,1.18-3a.9.9,0,0,0-.94.23s0-.7,1.33-1.58A2.8,2.8,0,0,0,147.38,66.34Z" transform="translate(-5.2 -7.55)"/><path class="cls-4" d="M147.69,71.89c0,.37-.34,2.42.93,2.72s1.29.68,1.31,1A1.21,1.21,0,0,0,149,74s.4-.36.67-.19c0,0,0-.49-1-.62A1.13,1.13,0,0,1,147.69,71.89Z" transform="translate(-5.2 -7.55)"/><path class="cls-4" d="M147.23,62.12c0,.62-.55,4,1.53,4.49s2.14,1.13,2.17,1.65a2,2,0,0,0-1.63-2.74s.67-.59,1.12-.31c0,0-.07-.81-1.69-1A1.92,1.92,0,0,1,147.23,62.12Z" transform="translate(-5.2 -7.55)"/><path class="cls-4" d="M145.23,80.82c-.06.69.34,4.18-2,5.65s-2.45,2.19-2.52,2.79c0,0-.77-2,2-3.75a1.09,1.09,0,0,0-1.22.14s.14-.93,1.94-1.87A3.75,3.75,0,0,0,145.23,80.82Z" transform="translate(-5.2 -7.55)"/><path class="cls-4" d="M156.08,73.33c-.26.69-1,4.36-3.48,5.18s-2.82,1.52-3.07,2.11c0,0-.07-2.25,2.89-3.24a.89.89,0,0,0-1.11-.21s.4-.91,2.28-1.34A4,4,0,0,0,156.08,73.33Z" transform="translate(-5.2 -7.55)"/><path class="cls-4" d="M155.83,73.69c-.19.69-1.85,4.28,0,5.5s1.69,1.94,1.55,2.54a2.47,2.47,0,0,0-.67-3.57s.84-.45,1.18,0c0,0,.2-.92-1.29-1.68A2.24,2.24,0,0,1,155.83,73.69Z" transform="translate(-5.2 -7.55)"/><path class="cls-4" d="M179.76,59.28c.69,0,4.44-.8,5.1,1.38s1.38,2.2,2,2.2a2.28,2.28,0,0,1-3.15-1.57s-.63.73-.29,1.19c0,0-.91,0-1.23-1.73A2.12,2.12,0,0,0,179.76,59.28Z" transform="translate(-5.2 -7.55)"/><path class="cls-4" d="M166.72,83.5c-1.93,2.21-3.26,2.07-4,1.48a1.64,1.64,0,0,1-.18-2.34,1.61,1.61,0,0,0,.52,2,1,1,0,0,0,1.41-.08,1,1,0,0,0-.08-1.35.84.84,0,0,1,1.09.11,5.17,5.17,0,0,1,6-2.08A6.73,6.73,0,0,0,166.72,83.5Z" transform="translate(-5.2 -7.55)"/><path class="cls-4" d="M125.28,104.58A7.93,7.93,0,0,0,128,104c1.13-.46,1.82-1,2.34-1.25.3-.12.59-.13.74.08a.57.57,0,0,1,0,.69c-.21.3-.48.25-1,.53-.26.13-1,.56-1,.83s.33.38.33.38a.69.69,0,0,1-.74.23c-.52-.08-.39-.8-.33-1a8.81,8.81,0,0,1-3.11.47c-1.18-.06-1.74-.41-1.49-.54A10.76,10.76,0,0,0,125.28,104.58Z" transform="translate(-5.2 -7.55)"/><path class="cls-4" d="M202.66,67.74a4.61,4.61,0,0,1-1.07-2,17,17,0,0,1-.27-2.1.45.45,0,0,0-.5-.39.8.8,0,0,0-.61.41c-.14.3.06.43.14.91,0,.23.08.9-.14,1.08a.55.55,0,0,1-.53,0s-.16.3.23.57.93-.24,1-.37A5.41,5.41,0,0,0,202.36,68c.75.66,1.39.78,1.35.56S203.22,68.34,202.66,67.74Z" transform="translate(-5.2 -7.55)"/><path class="cls-4" d="M194.7,60.76l0-.1c-.48.17-.89,0-.95-.4a.87.87,0,0,1,.28-.73l.09-.08a1.21,1.21,0,0,0,.41-1.25A2.24,2.24,0,0,0,192.76,57l-.35-.2a4.54,4.54,0,0,1-.72-.67c.65-.06,1.09.48,1.66.43a3,3,0,0,0,1.83-1.15,1.22,1.22,0,0,1-.65,1.47c2.33,1.35.39,3.33,1.84,6.12C195.32,62,194.49,61.81,194.7,60.76Z" transform="translate(-5.2 -7.55)"/><path class="cls-4" d="M154.87,93.14c-.09-.34-.5-.5-.94-.47a2.67,2.67,0,0,0-1.48.58,2.21,2.21,0,0,0-.59.73c-.07.12-.12.24-.18.36A4.46,4.46,0,0,1,151,94a6.65,6.65,0,0,1-.73-.49A4.63,4.63,0,0,1,148.5,90a10.8,10.8,0,0,1,1-4.8,25.55,25.55,0,0,1,2.71-4.4,30.37,30.37,0,0,0,2.43-3.75,11.67,11.67,0,0,0,.72-1.67l-.28.36a11.19,11.19,0,0,1-1.2,2.41c-.72,1.14-1.59,2.26-2.5,3.55A19.6,19.6,0,0,0,149,86.13a9.9,9.9,0,0,0-.58,4.35,4.62,4.62,0,0,0,1.69,3.1,4.81,4.81,0,0,0,.66.45,4.18,4.18,0,0,0,.65.37l.2.13a2.57,2.57,0,0,0,.47,2.56,2.77,2.77,0,0,1-.37-2.56,4,4,0,0,0,1,.25,2.21,2.21,0,0,0,1.21-.17,1.7,1.7,0,0,0,.7-.64A1.12,1.12,0,0,0,154.87,93.14Zm-.6,1.1a1.66,1.66,0,0,1-1.14.4,3.66,3.66,0,0,1-1.34-.26,3,3,0,0,1,.42-.72,2.43,2.43,0,0,1,1.33-.79,1.22,1.22,0,0,1,1,.12.55.55,0,0,1,.13.59A1.46,1.46,0,0,1,154.27,94.24Z" transform="translate(-5.2 -7.55)"/><path class="cls-4" d="M184.41,57.81a1.82,1.82,0,0,0,1.54-.65,3.59,3.59,0,0,0,1-1.85,1.9,1.9,0,0,0-.11-1.06,2.87,2.87,0,0,0-.18-.4,8.47,8.47,0,0,1,1.19-.49,11.92,11.92,0,0,1,1.32-.42,7.69,7.69,0,0,1,5.54.45,9.37,9.37,0,0,1,3.94,4,20.24,20.24,0,0,1,1.61,5.5,25.29,25.29,0,0,0,1.23,4.8,9.94,9.94,0,0,0,.94,1.77,4.43,4.43,0,0,1-.06-.51,9.09,9.09,0,0,1-1.2-2.72c-.4-1.44-.61-3-1-4.75a14.89,14.89,0,0,0-2-5.14,9.28,9.28,0,0,0-3.9-3.32,7.92,7.92,0,0,0-5.11-.24,12,12,0,0,0-1.2.38,10.62,10.62,0,0,0-1.11.43,3.59,3.59,0,0,0-.35.12,3.36,3.36,0,0,0-3.19-1.13,3.2,3.2,0,0,1,3.08,1.24,8.49,8.49,0,0,0-1.39.88A3.86,3.86,0,0,0,183.87,56a1.55,1.55,0,0,0-.1,1.11A1,1,0,0,0,184.41,57.81Zm-.49-1.29a2.34,2.34,0,0,1,.84-1.4,7.63,7.63,0,0,1,1.75-1.18,2.9,2.9,0,0,1,.3.87,2.79,2.79,0,0,1-.64,1.84,2.5,2.5,0,0,1-1.25,1,.67.67,0,0,1-.75-.24A1.14,1.14,0,0,1,183.92,56.52Z" transform="translate(-5.2 -7.55)"/><path class="cls-4" d="M156.2,83.34a6.78,6.78,0,0,0,6.12,2.6,6.31,6.31,0,0,0,2.85-1.12,8,8,0,0,0,1.69-1.63c.12-.16.22-.3.31-.44A9,9,0,0,1,166,84.16a6.79,6.79,0,0,1-2.31,1.3,6.23,6.23,0,0,1-3.07.4,6.86,6.86,0,0,1-5.15-4,7.23,7.23,0,0,1-.65-3.9,13.68,13.68,0,0,1,1.31-4.39,44.5,44.5,0,0,1,2.33-4.28c.82-1.42,1.62-2.82,2.3-4.24a19.76,19.76,0,0,0,1.52-4.11l-.29.16a24,24,0,0,1-2.1,5.22c-1.48,2.91-3.55,5.81-4.6,8.93a10,10,0,0,0-.57,4.54A7.92,7.92,0,0,0,156.2,83.34Z" transform="translate(-5.2 -7.55)"/><path class="cls-4" d="M145.57,89a11.05,11.05,0,0,0,.34-8.68,8.39,8.39,0,0,0-.52-1.3l-.17-.31a7.27,7.27,0,0,0,.54-.57,8.42,8.42,0,0,0,1.68-3.4,15.2,15.2,0,0,0,.38-3.73c0-1.25-.14-2.49-.28-3.74a27.53,27.53,0,0,1-.29-3.77,11.37,11.37,0,0,1,.66-3.87,10.28,10.28,0,0,1,2.19-3.45,10.86,10.86,0,0,1,6.22-3.47,4.34,4.34,0,0,1,1.82.09l.18-.2-.43-.08a8.83,8.83,0,0,0-6.4,2.14,14.64,14.64,0,0,0-3,3.36,9.69,9.69,0,0,0-1.36,3.9c-.36,2.75.32,5.4.42,8s-.05,5.21-1.42,7.35a6.83,6.83,0,0,1-1,1.27A6.47,6.47,0,0,0,144,77.08a3,3,0,0,0-1.81-.84,2.68,2.68,0,0,0-1.59.49,2.74,2.74,0,0,0-1.08,1.3,1.54,1.54,0,0,0,.81,1.76,3.47,3.47,0,0,0,2.58.36,4,4,0,0,0,1.53-.75q.3-.23.6-.48a7.78,7.78,0,0,1,.61,1.37,12.83,12.83,0,0,1,.5,1.59,11.73,11.73,0,0,1-1.12,8,25.79,25.79,0,0,1-6.08,7.75,49.53,49.53,0,0,1-8.06,5.37,59.63,59.63,0,0,0-7,4.45c-3.1,2.38-5.45,5.36-5.27,5.52.42.14,1.41-1.7,2.53-2.85a28.42,28.42,0,0,1,5.07-4.16c2.11-1.37,4.51-2.73,7-4.2a35.59,35.59,0,0,0,7.27-5.38A24.24,24.24,0,0,0,145.57,89Zm-.68-10.28a6.56,6.56,0,0,1-1.28.91,3.4,3.4,0,0,1-2.59.16,1.83,1.83,0,0,1-1.27-1.2,1.34,1.34,0,0,1,.41-1.18,2.88,2.88,0,0,1,1.24-.8,2.22,2.22,0,0,1,1.94.36A5.58,5.58,0,0,1,144.89,78.74Z" transform="translate(-5.2 -7.55)"/><path class="cls-4" d="M216.29,55a9.32,9.32,0,0,0-4.59-.73c-3.36.21-6.79,1.58-10.07,2.31s-6.57,1.16-8.81,0a4.37,4.37,0,0,1-1.26-1,16.15,16.15,0,0,0,2.21-1.73,6.14,6.14,0,0,0,1.68-2.4,2.4,2.4,0,0,0-.08-1.82,1.7,1.7,0,0,0-1.28-1,3.17,3.17,0,0,0-2.5,1.4,5.68,5.68,0,0,0-1.33,3.23,2.89,2.89,0,0,0,.43,1.69,4.93,4.93,0,0,0,.4.61,14.39,14.39,0,0,1-1.94,1.06c-.72.35-1.42.69-2.17,1-3,1.22-6.46,2-9.55,1a14.21,14.21,0,0,1-3.32-2.12c-.6-.5-1.05-.55-1.11-.49a15.69,15.69,0,0,0,4.64,3c2.82.93,6.65,0,9.39-1.09.69-.27,1.35-.56,2-.88a15.46,15.46,0,0,0,1.81-.94l.45-.28a3.8,3.8,0,0,0,.54.52,6.41,6.41,0,0,0,3.73,1.24,18.86,18.86,0,0,0,4.59-.42c1.59-.32,3.2-.76,4.82-1.22a43.31,43.31,0,0,1,4.86-1.24,12.72,12.72,0,0,1,4.67-.1,6.91,6.91,0,0,1,3.61,1.85,7.8,7.8,0,0,1,2.42,6.73,7.39,7.39,0,0,1-1.18,3.22,7.54,7.54,0,0,1-2.06,2,9.58,9.58,0,0,1-1.74.89l.52-.21a8.09,8.09,0,0,0,2.09-1.33A7.43,7.43,0,0,0,220.08,65a8.11,8.11,0,0,0-.72-7.35A7.93,7.93,0,0,0,216.29,55Zm-24.92.38a4.53,4.53,0,0,1-.72-1.35A5,5,0,0,1,193.27,49a1.23,1.23,0,0,1,1.36.22,2,2,0,0,1,.59,1.32A3.68,3.68,0,0,1,194.1,53,12.56,12.56,0,0,1,191.37,55.33Z" transform="translate(-5.2 -7.55)"/><path class="cls-4" d="M408.18,152.69c-.17.32-.42,1.78-1.82,1.67s-1.87-1.48-1.05-2.1,1.07,1.25,2.28.16C408.37,151.7,408.28,152.51,408.18,152.69Z" transform="translate(-5.2 -7.55)"/><path class="cls-4" d="M407.16,151.25a3.94,3.94,0,0,1,.46-1.38c.31-.47.62-.31.48,0a13.07,13.07,0,0,0-.58,1.4C407.28,151.89,407.05,151.68,407.16,151.25Z" transform="translate(-5.2 -7.55)"/><path class="cls-4" d="M407.59,149c.09-.33,1.14-.43,1,0S407.51,149.32,407.59,149Z" transform="translate(-5.2 -7.55)"/><path class="cls-4" d="M406.37,150.29a2.94,2.94,0,0,1,.44,1.24c.1.41-.12.72-.34.13a8.91,8.91,0,0,0-.56-1.21C405.76,150.21,406.07,149.92,406.37,150.29Z" transform="translate(-5.2 -7.55)"/><path class="cls-4" d="M405.39,149.81c-.11-.44.92-.75,1-.44S405.49,150.26,405.39,149.81Z" transform="translate(-5.2 -7.55)"/><path class="cls-4" d="M408,151.8c-.53.54-.58.21-.26-.17a5.08,5.08,0,0,1,1.09-1.14c.49-.31.62,0,.36.22S408.39,151.41,408,151.8Z" transform="translate(-5.2 -7.55)"/><path class="cls-4" d="M410,150.16c-.34.41-1-.27-.73-.56S410.36,149.75,410,150.16Z" transform="translate(-5.2 -7.55)"/><path class="cls-4" d="M412.85,142.56c.24.46,1.18.73,2.27.18s2.15.38,2.48,1.7-.93,2.48-.15,3.64c1,1.55-.55,4.22-2.08,5.15-2.55,1.56-4.12.45-4.66.07-1.45-1-1.53-1.92,1.35-1.17,1.28.33.48-.55-1-1.21-.84-.37-.33-.7.48-.73a7,7,0,0,1,2.26-.09c1,.23.69-.4-.07-.59a4.82,4.82,0,0,0-2-.1c-1.31.31-.2-.88,1.85-1.61.95-.34.62-.73-.21-.55a4.38,4.38,0,0,0-2.48,1.14c-1.83,1.7-2-.8-1.06-3.31S412.4,141.67,412.85,142.56Z" transform="translate(-5.2 -7.55)"/><path class="cls-4" d="M398.68,150.42c1.45-1,5-.07,5.7.47s.86,1.41-.37,1.05-4.32,1.22-2.79.9c2-.41,2.48.43,1.17.68a6.48,6.48,0,0,0-3.47,1.55c-.76.83-.72,1.44-.05.68a4.39,4.39,0,0,1,2.69-1.39c1.25-.27,2.37-.51.92.53a10.37,10.37,0,0,0-2.92,2.76c-1,1.52-.26,1.69.57.13a8.43,8.43,0,0,1,3.37-3.07c1.07-.37,1.4-.12.64.38a8,8,0,0,0-2.48,3.84,3.42,3.42,0,0,1-1.27,1.62,1.49,1.49,0,0,0-.49-1c-1.2-1.07-1.53.74-3.39.57h-.27c-.58-.85-2.43-.59-1.81-2.28.77-2.08-.85-2.17.57-3.66,1-1.08,1.86-.57,2.14-1.12S397.23,151.47,398.68,150.42Z" transform="translate(-5.2 -7.55)"/><path class="cls-4" d="M408.82,142.84a5.51,5.51,0,0,1-.42,4.35c-.58,1-1.36,1.83-.86-.08s-.51-1.1-.6-.1-.59,1.71-.94.46-2.69-1.42-1.53-.16,1.39,2.37.33,1.35-2.05-.47-1.43.06a2.07,2.07,0,0,0,1.34.54c.39.07.37.65-.52.62-.71,0-3.92-.54-4.65-1.17s-.76-2.12.4-3.25,2.55-1.37,3.15-2.41C405.25,139.23,407.94,140.73,408.82,142.84Z" transform="translate(-5.2 -7.55)"/><path class="cls-4" d="M405.47,155c.78-.16.92,2.45,1.74,3.33s1.29.78.42-.5-.82-2.29-.33-2.27.69,1,1.33,1.92,1.57.86.2-.8-1-2.59-.15-3.34,1,.54,1.47,1.36,1.94-.31,3.09.31a2.54,2.54,0,0,1,.5,2.46,11.69,11.69,0,0,1-1.33,2.58l0-.09c-.16.17-.33.35-.51.52-1.83,1.75-3,.87-3.22.76s-.73-1.81-1.91.19-3.94.78-4.24-1S404.44,155.16,405.47,155Z" transform="translate(-5.2 -7.55)"/><path class="cls-4" d="M389.36,150.62a1,1,0,0,0-1.51.41c-.64,1-.36,2,.26,1.73s.06-1.33,1.05-1.61C389.83,151,389.48,150.64,389.36,150.62Z" transform="translate(-5.2 -7.55)"/><path class="cls-4" d="M389.4,152a1.44,1.44,0,0,0,.73.36c.33,0,.42-.27.24-.31a5,5,0,0,1-.8-.29C389.22,151.61,389.19,151.87,389.4,152Z" transform="translate(-5.2 -7.55)"/><path class="cls-4" d="M390.45,152.82c.16.1.72-.56.49-.72S390.28,152.71,390.45,152.82Z" transform="translate(-5.2 -7.55)"/><path class="cls-4" d="M389.37,153a2,2,0,0,0-.25-.9c-.1-.27-.32-.27-.22.17s.15.76.18,1S389.36,153.39,389.37,153Z" transform="translate(-5.2 -7.55)"/><path class="cls-4" d="M389.07,153.9c.11.29.72-.25.65-.46S389,153.61,389.07,153.9Z" transform="translate(-5.2 -7.55)"/><path class="cls-4" d="M389.61,151.17c-.45.09-.36.29-.06.26a2.28,2.28,0,0,0,.95-.18c.35-.17.3-.42.1-.35S389.94,151.1,389.61,151.17Z" transform="translate(-5.2 -7.55)"/><path class="cls-4" d="M391.2,150.6c-.32,0-.37.79-.15.76S391.52,150.58,391.2,150.6Z" transform="translate(-5.2 -7.55)"/><path class="cls-4" d="M395.4,152.41a2,2,0,0,1,1-1.62,2.18,2.18,0,0,0,.58-2.51c-.33-.87-1.37-.58-1.42-1.68-.06-1.46-1.83-1.69-2.92-1.11a4.38,4.38,0,0,0-2.3,3.11c-.33,1.47,0,2,1.09-.34.5-1,.44,0,0,1.25-.27.75.1.57.51,0a8.23,8.23,0,0,0,1.14-1.48c.41-.79.48-.27.18.34a6.17,6.17,0,0,1-.95,1.42c-.75.73.23.56,1.5-.46.59-.48.57-.06.1.41a3.42,3.42,0,0,1-1.63,1.11c-1.53.41-.69,1.75.71,2.33S395.5,153.15,395.4,152.41Z" transform="translate(-5.2 -7.55)"/><path class="cls-4" d="M385.57,158.14c1.1-.46,2.48-3.36,2.61-4.07s-.1-1.27-.57-.26-2.56,2.32-1.7,1.44c1.11-1.12,1-1.89.31-1.12a5.17,5.17,0,0,1-2.27,1.59c-.68.11-.89-.22-.28-.3a3.16,3.16,0,0,0,1.83-1.14c.71-.72,1.35-1.35.25-.88a5.21,5.21,0,0,1-2.45.62c-1.06-.05-.75-.65.23-.44a4.44,4.44,0,0,0,2.78-.77c.66-.54.72-.89.17-.62a3.19,3.19,0,0,1-2.63-.21,1.47,1.47,0,0,0-1.22.07,1.19,1.19,0,0,1,.11.8c-.19,1.33-1,.67-1.87,2a1.4,1.4,0,0,1-.13.18c0,.81-1,1.93,0,2.33,1.15.5.39,1.63,1.63,1.4.9-.16,1.12-1,1.46-.9S384.47,158.6,385.57,158.14Z" transform="translate(-5.2 -7.55)"/><path class="cls-4" d="M393.33,155a2.39,2.39,0,0,0-1.82-1.84c-.65-.09-1.34,0-.39.62s.15.88-.26.46-.92-.44-.63.4-.79,2.51-.69,1.12-.2-2.1-.34-.88-.83,1.61-.72.93a2.78,2.78,0,0,1,.45-1.16c.17-.3-.06-.57-.48.05a17.35,17.35,0,0,0-1.84,3.71,1.1,1.1,0,0,0,1.4,1.32c.89-.2,1.75-1.05,2.43-.95C392.92,159.16,393.68,156.61,393.33,155Z" transform="translate(-5.2 -7.55)"/><path class="cls-4" d="M387.2,151.34c.44-.45-.46-1.82-.38-2.8s.34-1.25.39,0,.45,1.67.68,1.33,0-1-.06-1.84.45-1.48.39.26.49,1.92,1.16,1.74.3-1,.21-1.65,1.06-1.16,1.39-2.24a1.58,1.58,0,0,0-.67-1.54,4.45,4.45,0,0,0-1.6-.36.17.17,0,0,1,0,.07l-.44.09a2.41,2.41,0,0,0-1.86,1.8c-.09.23.31,1.38-1,1.19s-2.21,2.28-1.7,3.35S386.62,151.93,387.2,151.34Z" transform="translate(-5.2 -7.55)"/><path class="cls-4" d="M412.25,135.31c-.13.18-.4,1.07-1.21.86s-1-1.13-.42-1.43.51.9,1.31.34C412.46,134.7,412.33,135.2,412.25,135.31Z" transform="translate(-5.2 -7.55)"/><path class="cls-4" d="M411.79,134.29a2.55,2.55,0,0,1,.39-.82c.22-.26.39-.13.28,0a7.64,7.64,0,0,0-.47.82C411.8,134.71,411.69,134.55,411.79,134.29Z" transform="translate(-5.2 -7.55)"/><path class="cls-4" d="M412.25,132.92c.08-.2.71-.15.6.13S412.17,133.12,412.25,132.92Z" transform="translate(-5.2 -7.55)"/><path class="cls-4" d="M411.42,133.61a2,2,0,0,1,.14.83c0,.27-.14.44-.21,0a7.05,7.05,0,0,0-.22-.82C411.07,133.49,411.27,133.34,411.42,133.61Z" transform="translate(-5.2 -7.55)"/><path class="cls-4" d="M410.89,133.21c0-.29.6-.38.62-.17S410.91,133.5,410.89,133.21Z" transform="translate(-5.2 -7.55)"/><path class="cls-4" d="M412.23,134.73c-.35.28-.36.07-.14-.14a3,3,0,0,1,.74-.6c.31-.15.36.07.19.17S412.49,134.52,412.23,134.73Z" transform="translate(-5.2 -7.55)"/><path class="cls-4" d="M413.56,133.91c-.24.23-.54-.27-.37-.43S413.8,133.69,413.56,133.91Z" transform="translate(-5.2 -7.55)"/><path class="cls-4" d="M415.9,129.42c.1.32.62.58,1.31.35s1.22.46,1.3,1.33-.77,1.46-.42,2.28c.47,1.09-.7,2.6-1.68,3a2.16,2.16,0,0,1-2.73-.45c-.76-.79-.72-1.37.89-.59.72.35.33-.3-.47-.86-.46-.32-.13-.48.35-.41a3.84,3.84,0,0,1,1.33.18c.57.25.44-.18,0-.38a2.75,2.75,0,0,0-1.17-.28c-.79.06,0-.58,1.22-.82.59-.11.43-.39-.07-.37a2.39,2.39,0,0,0-1.55.46c-1.22.88-1.1-.71-.32-2.2S415.72,128.82,415.9,129.42Z" transform="translate(-5.2 -7.55)"/><path class="cls-4" d="M406.92,132.88c.94-.51,2.94.48,3.28.89s.37,1-.31.62-2.63.32-1.71.27c1.18,0,1.41.53.62.55a3.63,3.63,0,0,0-2.17.61c-.52.44-.55.84-.09.42a2.47,2.47,0,0,1,1.69-.59c.76,0,1.43-.07.49.43a6,6,0,0,0-2,1.43c-.73.85-.31,1,.32.14a4.94,4.94,0,0,1,2.25-1.58c.66-.12.83.07.34.31a4.82,4.82,0,0,0-1.79,2.16,2.1,2.1,0,0,1-.89.89,1,1,0,0,0-.2-.65c-.6-.8-1,.3-2,0l-.16,0c-.26-.6-1.37-.63-.85-1.62.64-1.23-.3-1.45.66-2.24.7-.57,1.14-.16,1.35-.48S406,133.39,406.92,132.88Z" transform="translate(-5.2 -7.55)"/><path class="cls-4" d="M413.52,129.17a3.71,3.71,0,0,1-.64,2.69c-.43.56-1,1-.49-.14s-.2-.75-.34-.13-.5,1-.59.19-1.44-1.18-.88-.27.6,1.64.07.88-1.15-.51-.84-.11a1.27,1.27,0,0,0,.73.48c.22.09.16.45-.36.34a7.72,7.72,0,0,1-2.61-1.22,1.51,1.51,0,0,1,.53-2c.7-.54,1.61-.59,2-1.19C411.76,126.53,413.2,127.76,413.52,129.17Z" transform="translate(-5.2 -7.55)"/><path class="cls-4" d="M410.47,136.45c.47,0,.32,1.64.71,2.28s.68.63.29-.27-.27-1.53,0-1.46.31.71.6,1.35.84.7.19-.48-.33-1.73.21-2.12.55.45.73,1,1.16,0,1.78.52a1.75,1.75,0,0,1,.07,1.6,6.06,6.06,0,0,1-1,1.42l-.34.27c-1.23.91-1.8.24-1.95.14s-.26-1.22-1.13-.08-2.37.08-2.38-1.07S409.85,136.47,410.47,136.45Z" transform="translate(-5.2 -7.55)"/><path class="cls-4" d="M417.08,112.32s-5.15-7.71-1.33-12.06c2.72-3.09,4.35-2.13,4.35-2.13S419.3,97,418.66,97s.15-.24.15-.24a4,4,0,0,1,3.65-1.17s-1-1.69-1.85-1.53c0,0,5-3.56,5.12-6.17a19.62,19.62,0,0,1-4.64,4.06C418.29,93.64,406.66,102,417.08,112.32Z" transform="translate(-5.2 -7.55)"/><path class="cls-4" d="M430,70.87c.41-.52,1.84-.42,1.49,1.07a1.67,1.67,0,0,0,.94-.85c.53-1.47,2.09-3.22,3.65-1.11,0,0-1.85-.62-2.36.24-.71,1.22-1.21,2.72-3.22,3.67C430.68,73.3,431.6,70.65,430,70.87Z" transform="translate(-5.2 -7.55)"/><path class="cls-4" d="M379.8,135.42s-.07-2.78,1.5-3.09c0,0,0,.69.42.61s1.1-1.7,2.22-1c0,0,.11,1-1.74,2.85,0,0,1.06-.32.3,1.13s-2.23,1.65-1.39,3.61-3.13-2.55.15-4.93c0,0,1.09-1.61-.35-.48S379.8,135.42,379.8,135.42Z" transform="translate(-5.2 -7.55)"/><path class="cls-4" d="M408.62,103.59s-1-2.36-2.38-1.3c0,0,.23.59-.12.86s-1.54-.48-2.19,1.07c0,0,.26.89,2.49.9,0,0-1,.63.17,1.19s2.46-.51,2.48,1.83,1.66-4.76-1.93-4c0,0-1.49-.42.12-.69S408.62,103.59,408.62,103.59Z" transform="translate(-5.2 -7.55)"/><path class="cls-4" d="M372.34,150.31s-2.63-.31-6.24,2.12-4,5.92-3,8.16a4.2,4.2,0,0,0,3.52,2.29,7.72,7.72,0,0,1-2.38-4.61,2.49,2.49,0,0,0,1.63,0,4.87,4.87,0,0,1-1.09-1.74c-.52-1.25.83-3,2.12-4C370.28,150.17,372.34,150.31,372.34,150.31Z" transform="translate(-5.2 -7.55)"/><path class="cls-4" d="M405.4,113.36a4.91,4.91,0,0,0-3.18-2.53c-2.38-.72-4.43,1.1-5.26,3.06a4.39,4.39,0,0,0,0,3.5,9.58,9.58,0,0,1,1.64-4.19,1.67,1.67,0,0,0,.53,1,6.28,6.28,0,0,1,.55-1.7,2.44,2.44,0,0,1,2.79-1.07A4.3,4.3,0,0,1,405.4,113.36Z" transform="translate(-5.2 -7.55)"/><path class="cls-4" d="M356.72,157.87c0,.18-3.55,1.24-3.92.25a4.49,4.49,0,0,0-2.95-2s-.68,1.3,0,2.15c0,0-1.07-.15-1.35-2.52a4.55,4.55,0,0,0-2-3.2,6.49,6.49,0,0,0-.05,2.5s-.46-2.45-1.34-2.76c-.07,0-.63-2-.89-1.61a7.4,7.4,0,0,0,.37,2.77c.46.79.24.82,1.36,3.41a5.52,5.52,0,0,0,4.22,3A9.14,9.14,0,0,0,356.72,157.87Z" transform="translate(-5.2 -7.55)"/><path class="cls-4" d="M402.78,124.32a8.23,8.23,0,0,1,1.65,1.94c.33.48-.07-1.74-.55-2-.3-.16-.29-.13-.47-.47a.91.91,0,0,0-.27-.37c-.15-.09-.33,0-.46,0s-.27-.53-.57-.64-.55.29-.76.19a5.32,5.32,0,0,0-3.23-.61,4.42,4.42,0,0,0-2.74,1.5c-.08.12,0,.17.1.13a4.34,4.34,0,0,1,2-1.18,2,2,0,0,1,2.19.95c.25.31.14.68.47.87s.46.06.57.52,0,.75.4.87.63-.13.84.4c.15.37.19.93.52,1.16.53.38,1.63-.23,1.23-.77a15.4,15.4,0,0,0-1.68-2.07,15.82,15.82,0,0,0-2-1.62A4.69,4.69,0,0,1,402.78,124.32Z" transform="translate(-5.2 -7.55)"/><path class="cls-4" d="M404.47,127.05a5.47,5.47,0,0,0-1-1.73,6.74,6.74,0,0,0-1.39-1.29,6.19,6.19,0,0,0-1.11-.57s.27.23,1,.74a7.44,7.44,0,0,1,1.82,2,4.77,4.77,0,0,1,.66,1.63,10.66,10.66,0,0,1,0,1.67A3.72,3.72,0,0,0,404.47,127.05Z" transform="translate(-5.2 -7.55)"/><path class="cls-4" d="M417.63,85.07a11.46,11.46,0,0,1,.32,2.82c0,.66.77-1.77.52-2.27a1,1,0,0,1-.13-.72,1.44,1.44,0,0,0,0-.51c-.07-.17-.26-.16-.33-.28s.05-.67-.13-.94-.55,0-.67-.23a4.83,4.83,0,0,0-2.14-2.36,3.13,3.13,0,0,0-2.77,0c-.12.08-.08.17,0,.18a3.06,3.06,0,0,1,2.09-.06c.83.34,1.1,1,1.2,2.14,0,.44-.21.75-.06,1.12s.31.31.18.82-.33.75-.11,1.08.53.21.45.85a3.77,3.77,0,0,0-.16,1.43c.22.67,1.34.66,1.29-.09a20.43,20.43,0,0,0-.29-3,19.8,19.8,0,0,0-.74-2.69C416.13,82.3,417,83,417.63,85.07Z" transform="translate(-5.2 -7.55)"/><path class="cls-4" d="M417.6,88.69a8.17,8.17,0,0,0,0-2.28,9.57,9.57,0,0,0-.43-2,7.6,7.6,0,0,0-.56-1.17s.09.37.39,1.27a9.83,9.83,0,0,1,.42,3,6.94,6.94,0,0,1-.27,2,17.38,17.38,0,0,1-.76,1.67A4.41,4.41,0,0,0,417.6,88.69Z" transform="translate(-5.2 -7.55)"/><path class="cls-4" d="M376,134.93a8.51,8.51,0,0,1,2.47.74c.53.22-.81-1.35-1.39-1.31a.78.78,0,0,1-.66-.15A1,1,0,0,0,376,134c-.18,0-.32.19-.48.2-.32,0-.49-.29-.84-.23s-.43.5-.69.52a7.2,7.2,0,0,0-3.49,1.09,5.13,5.13,0,0,0-2.12,2.53c0,.13.07.14.16,0a4.89,4.89,0,0,1,1.55-1.93,2.61,2.61,0,0,1,2.6-.31c.38.12.43.47.84.46s.49-.17.79.13.34.58.77.5.57-.41,1-.09.58.64,1,.67c.7,0,1.54-1,.92-1.21a14.8,14.8,0,0,0-2.56-.82,16.71,16.71,0,0,0-2.69-.31A6.15,6.15,0,0,1,376,134.93Z" transform="translate(-5.2 -7.55)"/><path class="cls-4" d="M378.81,136.28a5.06,5.06,0,0,0-1.76-.87,8,8,0,0,0-1.94-.35,9.13,9.13,0,0,0-1.36.08s.36.05,1.3.11a7.85,7.85,0,0,1,2.66.7,3.94,3.94,0,0,1,1.34,1,9.36,9.36,0,0,1,.74,1.31A2.59,2.59,0,0,0,378.81,136.28Z" transform="translate(-5.2 -7.55)"/><path class="cls-6" d="M392.37,142.94a7.16,7.16,0,0,0,2.09.62c4.24.65,4.36,1.67,4.75,1.44.74-.44.69-.47,1-.88a20.3,20.3,0,0,0,3-5.47,8.73,8.73,0,0,0,.37-2.69c0-.17.07-.8-.12-.8a1.84,1.84,0,0,0-1,.57,4.85,4.85,0,0,0-.21-2.59c-.06-.12-.14-.47-.32-.38a2.58,2.58,0,0,0-.78.62c-.06-1.09-.28-3.48-1.79-2.25a6.44,6.44,0,0,0-.57-1.17,3,3,0,0,0-1-.7c-.28-.17-.22-.28-.51.12a4.53,4.53,0,0,0-.57,1.09c-.48-.55-.9-1.36-1.63-1.56-.58-.17-.83-.31-1.13.32-.21.44-.55.35-.84.12a5,5,0,0,0-4.38-1c.85.62,1.93,1.11,2.4,2.12.15.31.5,2.19-.15,2.42-.22.08-1,.18-1,.5a2.33,2.33,0,0,0,.15.88,3.48,3.48,0,0,0,1.36,1.78c-.37.35-.78.66-1.13,1-.49.53,1,2.62,2.12,3.3-.24-.14-1.08.26-1.22.44A3.71,3.71,0,0,0,392.37,142.94Zm.69-1.27a.11.11,0,0,1,.13,0,8.78,8.78,0,0,0,3,.88c.43,0,2.27.2,2.93.18-.09-.58-.21-1.13-.34-1.69l-.09-.38-.17,0-1,.05a10.62,10.62,0,0,1-3.16-.37,4.81,4.81,0,0,1-1.52-.6.09.09,0,0,1,0-.13.11.11,0,0,1,.13-.05,12.31,12.31,0,0,0,2.88.59,13.86,13.86,0,0,0,2.73,0,14.44,14.44,0,0,0-.51-1.4c-.05-.11-.1-.31-.17-.45s-.11-.15-.14-.14l-1.14.06a10.86,10.86,0,0,1-3.09-.3,11.34,11.34,0,0,1-1.65-.53.08.08,0,0,1,0-.12.12.12,0,0,1,.12-.08,21.36,21.36,0,0,0,2.79.46,13.55,13.55,0,0,0,1.43.08,12.69,12.69,0,0,0,1.35-.11c-.25-.49-.56-.95-.84-1.42h0l0-.07v0h-.42c-.3,0-.61,0-.91,0a11.21,11.21,0,0,1-3.24-.61c-.26-.09-.51-.2-.76-.31a.09.09,0,0,1,0-.12.12.12,0,0,1,.12-.07,23.13,23.13,0,0,0,2.53.52,12.44,12.44,0,0,0,2.37.06l-1-1.32c-.09-.14-.24-.39-.31-.37l-1.11,0a4.74,4.74,0,0,1-2.47-.29.08.08,0,0,1,0-.12.12.12,0,0,1,.12-.07,11.09,11.09,0,0,0,3.15,0c-.71-.85-1.45-1.67-2.2-2.48h0a.11.11,0,0,1,0-.14.1.1,0,0,1,.13,0c.81.76,1.59,1.55,2.35,2.36a9.33,9.33,0,0,0-.18-1.6c-.13-.61-.3-1.21-.48-1.81a.13.13,0,0,1,.06-.14.08.08,0,0,1,.12,0,9.62,9.62,0,0,1,.92,4c.46.5.92,1,1.35,1.51a13.06,13.06,0,0,0,.76-4.23.14.14,0,0,1,.07-.13.08.08,0,0,1,.11,0,7,7,0,0,1-.21,2.84,7.44,7.44,0,0,0-.34,2h0a4.34,4.34,0,0,1,.23.4c.15.29.3.63.45.94a2.12,2.12,0,0,1,.11.21,46,46,0,0,0,1.52-5.27.14.14,0,0,1,.1-.11.07.07,0,0,1,.09.07,28,28,0,0,1-1.25,5.36c-.05.17-.11.34-.16.51a.2.2,0,0,0,0,.08l.08.13a0,0,0,0,1,0,0c.1.21.2.43.29.66l.41,1.11a37,37,0,0,0,2.49-5.86.13.13,0,0,1,.11-.1c.05,0,.08,0,.08.09a20.9,20.9,0,0,1-2.37,6.28,1.12,1.12,0,0,0-.12.27,1.68,1.68,0,0,0,.09.33c.13.52.23,1,.32,1.56a64.4,64.4,0,0,0,3-5.72.14.14,0,0,1,.11-.09s.08,0,.07.1a52.33,52.33,0,0,1-3,6.4c-.11.19,0,.51,0,.78s0,.26,0,.38a.12.12,0,0,1-.05.1h0l-.27.15h0a.1.1,0,0,1-.09,0,.07.07,0,0,1,0-.07c0-.27,0-.54-.05-.81a1.9,1.9,0,0,0,0-.34c-.33-.05-3.27-.23-4.21-.48a7.27,7.27,0,0,1-2-.94A.08.08,0,0,1,393.06,141.67Z" transform="translate(-5.2 -7.55)"/><path class="cls-4" d="M391.65,143.41c.34,0-.39-1.56-1.31-2.17a7,7,0,0,0-3.73-.76,26.19,26.19,0,0,1-3.88-.13,3.39,3.39,0,0,1-1.93-.86,3.64,3.64,0,0,1-1-1.87,24,24,0,0,1-.48-4,6.08,6.08,0,0,0-1.07-3.5,2.55,2.55,0,0,0-1.48-.77,2.61,2.61,0,0,1,1.14.59c.67.57,1.14,2.34,1.19,3.81s.08,4.48,1.56,5.88,4.67,1,6.2,1a5.55,5.55,0,0,1,3.83,1.23C391.41,142.58,391.3,143.43,391.65,143.41Z" transform="translate(-5.2 -7.55)"/><path class="cls-4" d="M418,124.85c-.2-.5-1.75-2.79-.39-4.7s1.19-2.45,1-2.89c0,0,1.32,1.11-.27,3.37a1,1,0,0,0,.92-.55s.22.7-.89,2A2.85,2.85,0,0,0,418,124.85Z" transform="translate(-5.2 -7.55)"/><path class="cls-4" d="M415.81,119.42c-.13-.37-.44-2.52-1.88-2.38s-1.6-.23-1.72-.54c0,0-.1,1.46,1.59,1.31,0,0-.31.5-.65.42,0,0,.21.47,1.29.26A1.24,1.24,0,0,1,415.81,119.42Z" transform="translate(-5.2 -7.55)"/><path class="cls-4" d="M419.51,129c-.22-.61-.73-4.17-3.1-3.93s-2.64-.37-2.85-.89c0,0-.17,2.4,2.62,2.16,0,0-.51.82-1.08.7,0,0,.34.78,2.12.42A2.07,2.07,0,0,1,419.51,129Z" transform="translate(-5.2 -7.55)"/><path class="cls-4" d="M415.48,109.67c-.16-.71-1.74-4,.26-6.33s1.87-3,1.75-3.66c0,0,1.47,1.71-.87,4.43a1.28,1.28,0,0,0,1.24-.57s.16,1-1.44,2.55C416.42,106.09,414.83,107.81,415.48,109.67Z" transform="translate(-5.2 -7.55)"/><path class="cls-4" d="M406.44,120.94c.05-.78-.42-4.68,2-6.37s2.49-2.5,2.55-3.17c0,0,.82,2.22-2,4.24a1,1,0,0,0,1.25-.18s-.13,1-2,2.13A4.24,4.24,0,0,0,406.44,120.94Z" transform="translate(-5.2 -7.55)"/><path class="cls-4" d="M406.58,120.49c0-.76.56-4.91-1.81-5.48s-2.43-1.34-2.48-2a2.51,2.51,0,0,0,1.88,3.33s-.74.74-1.25.41c0,0,.09,1,1.92,1.22A2.26,2.26,0,0,1,406.58,120.49Z" transform="translate(-5.2 -7.55)"/><path class="cls-4" d="M386,143.22c-.73.26-4.44,2.35-5.86.41s-2.18-1.71-2.81-1.5a2.6,2.6,0,0,1,3.85.46s.43-1-.08-1.29c0,0,1-.29,1.87,1.29A2.36,2.36,0,0,0,386,143.22Z" transform="translate(-5.2 -7.55)"/><path class="cls-4" d="M391.81,114.53c1.31-2.88,2.77-3.21,3.75-2.87a1.65,1.65,0,0,1,1,2.27,1.64,1.64,0,0,0-1.2-1.79,1.19,1.19,0,0,0-1.47.58,1,1,0,0,0,.53,1.32,1,1,0,0,1-1.19.27,6,6,0,0,1-5.68,4.17A7.82,7.82,0,0,0,391.81,114.53Z" transform="translate(-5.2 -7.55)"/><path class="cls-4" d="M428.79,79a9.11,9.11,0,0,0-2.72,1.58c-1.05.85-1.59,1.66-2.06,2.06-.27.23-.58.34-.81.18a.59.59,0,0,1-.22-.69c.13-.37.43-.42.91-.88.23-.22.85-.9.8-1.18s-.47-.27-.47-.27.1-.38.71-.49.68.66.67.84a10.84,10.84,0,0,1,3.14-1.56c1.27-.36,2-.21,1.76,0S429.84,78.65,428.79,79Z" transform="translate(-5.2 -7.55)"/><path class="cls-4" d="M358.92,142.81a4.75,4.75,0,0,1,1.79,1.59,18,18,0,0,1,1,2,.5.5,0,0,0,.66.21.88.88,0,0,0,.51-.62c.05-.35-.21-.41-.45-.86-.12-.22-.38-.86-.21-1.12a.63.63,0,0,1,.55-.22s.07-.35-.43-.48-.91.57-1,.73a5.77,5.77,0,0,0-2.18-1.59c-1-.39-1.73-.29-1.61-.08S358.13,142.42,358.92,142.81Z" transform="translate(-5.2 -7.55)"/><path class="cls-4" d="M369.65,147v.11c.45-.34.94-.3,1.13.06a.89.89,0,0,1-.06.82l-.07.11a1.21,1.21,0,0,0,0,1.38,2.49,2.49,0,0,0,2.3.59,2.13,2.13,0,0,0,.44.07,5.63,5.63,0,0,1,1,.41c-.67.29-1.31-.09-1.9.16a3.34,3.34,0,0,0-1.56,1.78,1.27,1.27,0,0,1,.2-1.69c-2.91-.53-1.51-3.18-4-5.45C368.58,146,369.52,145.86,369.65,147Z" transform="translate(-5.2 -7.55)"/><path class="cls-4" d="M401.2,100.78c.2.31.69.32,1.15.14a3,3,0,0,0,1.37-1.1,2.46,2.46,0,0,0,.39-.93c0-.14.05-.28.07-.42a4.63,4.63,0,0,1,.89.12,7.47,7.47,0,0,1,.93.24,4.73,4.73,0,0,1,3,2.86,10.75,10.75,0,0,1,.55,5.12,26.91,26.91,0,0,1-1.43,5.34,32.49,32.49,0,0,0-1.34,4.59,12.31,12.31,0,0,0-.22,1.91c.05-.15.12-.31.18-.45a11.45,11.45,0,0,1,.48-2.82c.39-1.39.94-2.81,1.48-4.41a20.12,20.12,0,0,0,1-5.23,10,10,0,0,0-.81-4.54,4.79,4.79,0,0,0-2.82-2.5,6.24,6.24,0,0,0-.85-.22,4.58,4.58,0,0,0-.81-.14l-.25-.06a2.56,2.56,0,0,0-1.34-2.38,2.72,2.72,0,0,1,1.23,2.42,5,5,0,0,0-1.17.11,2.68,2.68,0,0,0-1.22.59,1.78,1.78,0,0,0-.53.89A1.18,1.18,0,0,0,401.2,100.78Zm.27-1.3a2,2,0,0,1,1.07-.8,4.26,4.26,0,0,1,1.5-.21,3.67,3.67,0,0,1-.2.87,2.71,2.71,0,0,1-1.15,1.25,1.5,1.5,0,0,1-1.12.24.54.54,0,0,1-.33-.54A1.64,1.64,0,0,1,401.47,99.48Z" transform="translate(-5.2 -7.55)"/><path class="cls-4" d="M381.52,146.31a2,2,0,0,0-1.41,1.19,3.68,3.68,0,0,0-.47,2.2,1.88,1.88,0,0,0,.46,1c.1.12.21.23.32.34a9.78,9.78,0,0,1-1.1.9,14.15,14.15,0,0,1-1.26.88,9.1,9.1,0,0,1-6,1.5,10.22,10.22,0,0,1-5.49-2.59,20.28,20.28,0,0,1-3.51-4.91,25,25,0,0,0-2.89-4.35,10.63,10.63,0,0,0-1.58-1.44,3.12,3.12,0,0,1,.23.49,9.26,9.26,0,0,1,2.17,2.29c.9,1.3,1.64,2.8,2.58,4.39a15.45,15.45,0,0,0,3.85,4.41,10.15,10.15,0,0,0,5.23,1.94,9.43,9.43,0,0,0,5.5-1.55,12.14,12.14,0,0,0,1.14-.8,10.51,10.51,0,0,0,1-.81c.09-.08.25-.16.33-.24a3.91,3.91,0,0,0,3.75,0,3.64,3.64,0,0,1-3.67-.16,10.43,10.43,0,0,0,1.19-1.36,4.11,4.11,0,0,0,.79-1.72,1.51,1.51,0,0,0-.26-1.14A1,1,0,0,0,381.52,146.31Zm1,1.12a2.36,2.36,0,0,1-.43,1.68,9.19,9.19,0,0,1-1.46,1.79,2.77,2.77,0,0,1-.6-.77,2.79,2.79,0,0,1,.08-2,2.91,2.91,0,0,1,1-1.39.77.77,0,0,1,.88,0A1.26,1.26,0,0,1,382.47,147.43Z" transform="translate(-5.2 -7.55)"/><path class="cls-4" d="M403,111a7.81,7.81,0,0,0-7.34-.44,7.47,7.47,0,0,0-2.65,2.11,8.43,8.43,0,0,0-1.25,2.22c-.07.2-.13.38-.19.54a9.39,9.39,0,0,1,.83-1.83,7.48,7.48,0,0,1,2-2.1,7.27,7.27,0,0,1,3.12-1.47,7.57,7.57,0,0,1,6.79,2.23,7.2,7.2,0,0,1,2,3.66,13.92,13.92,0,0,1,.06,4.83,48.83,48.83,0,0,1-1.06,5.08c-.4,1.7-.78,3.38-1,5a20.38,20.38,0,0,0-.26,4.62l.26-.27a24.2,24.2,0,0,1,.51-5.93c.61-3.42,1.85-7,1.94-10.5a9.78,9.78,0,0,0-.89-4.72A8.19,8.19,0,0,0,403,111Z" transform="translate(-5.2 -7.55)"/><path class="cls-4" d="M412.41,101.62A11.52,11.52,0,0,0,414,109.1a10.86,10.86,0,0,0,.94,1.28,7.55,7.55,0,0,0,1,1.11l.29.25c-.14.25-.27.5-.39.76a8.54,8.54,0,0,0-.66,4,14.39,14.39,0,0,0,.83,3.85c.43,1.24,1,2.43,1.52,3.63A26.31,26.31,0,0,1,419,127.6a11.08,11.08,0,0,1,.57,4.09,10.85,10.85,0,0,1-1.18,4.2,12.43,12.43,0,0,1-5.45,5.64,5.15,5.15,0,0,1-2,.55s-.12.24-.12.26l.49-.07a10.3,10.3,0,0,0,6.07-4.38,15.63,15.63,0,0,0,2.06-4.39,9.64,9.64,0,0,0,.15-4.36c-.52-2.87-2.11-5.27-3.06-7.79s-1.66-5.21-.91-7.82a7.21,7.21,0,0,1,.69-1.64,6.57,6.57,0,0,0,1.68,1,3.38,3.38,0,0,0,2.2.2,3,3,0,0,0,1.52-1.05,2.85,2.85,0,0,0,.71-1.68,1.58,1.58,0,0,0-1.44-1.47,4.07,4.07,0,0,0-2.85.54,4.64,4.64,0,0,0-1.38,1.28c-.17.22-.32.45-.47.69a7.49,7.49,0,0,1-1.09-1.15,13.45,13.45,0,0,1-1.05-1.4,11.59,11.59,0,0,1-1.43-8.31,27.19,27.19,0,0,1,3.9-9.85,55.68,55.68,0,0,1,6.77-8.17,68.6,68.6,0,0,0,6-6.89c2.5-3.46,4-7.24,3.76-7.34-.49,0-.93,2.18-1.75,3.73a30.49,30.49,0,0,1-4,5.92c-1.78,2.11-3.88,4.3-6.05,6.64a39.83,39.83,0,0,0-5.94,7.91A26,26,0,0,0,412.41,101.62Zm4.11,10a8.2,8.2,0,0,1,1.06-1.36,4,4,0,0,1,2.69-1.06A2,2,0,0,1,422,110a1.39,1.39,0,0,1,0,1.32,3.35,3.35,0,0,1-1.05,1.23,2.61,2.61,0,0,1-2.18.32A5.85,5.85,0,0,1,416.52,111.62Z" transform="translate(-5.2 -7.55)"/><path class="cls-4" d="M348.68,160.33a10.82,10.82,0,0,0,5.1-.89c3.49-1.38,6.68-3.95,9.91-5.82s6.57-3.46,9.34-3.09a4.85,4.85,0,0,1,1.65.53,17.76,17.76,0,0,0-1.77,2.5,6.58,6.58,0,0,0-1,3,2.31,2.31,0,0,0,.69,1.78,1.84,1.84,0,0,0,1.69.55,3.57,3.57,0,0,0,2.18-2.27,5.86,5.86,0,0,0,.35-3.68,2.94,2.94,0,0,0-1-1.53,4.91,4.91,0,0,0-.63-.47,18.51,18.51,0,0,1,1.7-1.74c.64-.6,1.27-1.18,2-1.74,2.78-2.27,6.19-4.25,9.81-4.29a16,16,0,0,1,4.21.95c.8.28,1.3.18,1.34.1a17.46,17.46,0,0,0-5.92-1.39c-3.29.06-7.05,2.33-9.59,4.37-.64.51-1.24,1-1.81,1.57a18.44,18.44,0,0,0-1.61,1.57l-.39.44a4.6,4.6,0,0,0-.75-.33,7.47,7.47,0,0,0-4.36.07,22.81,22.81,0,0,0-4.73,2c-1.58.87-3.14,1.88-4.71,2.9a50.31,50.31,0,0,1-4.75,2.94,15.57,15.57,0,0,1-4.91,1.74,8.21,8.21,0,0,1-9.23-6.44,7.47,7.47,0,0,1,.19-3.62,8.11,8.11,0,0,1,1.51-2.77,10.94,10.94,0,0,1,1.55-1.5c-.15.11-.3.24-.48.39a9.34,9.34,0,0,0-1.78,2.06,7.75,7.75,0,0,0-1.15,3.4,8.06,8.06,0,0,0,3.18,7.06A8.82,8.82,0,0,0,348.68,160.33ZM375,151.22a4.35,4.35,0,0,1,1.2,1.09,4.4,4.4,0,0,1,.31,3.34,4.76,4.76,0,0,1-1.46,2.5,1.46,1.46,0,0,1-1.51.26,2,2,0,0,1-1.06-1.11,3.78,3.78,0,0,1,.38-2.83A14.74,14.74,0,0,1,375,151.22Z" transform="translate(-5.2 -7.55)"/><path class="cls-4" d="M207.32,121.58a1.62,1.62,0,0,1,.63-.7,1,1,0,0,1,.6-1,2.69,2.69,0,0,1,.57-.17c.13-1.3-1.29-2-3.07-1.94-.5-1.07-1.22-.58-2.11-.64a1.52,1.52,0,0,0-2.24.41c-.82,1.28-.25,3-1.58,4a2.18,2.18,0,0,0,2.13-.56,1.83,1.83,0,0,1,1.09-2.61c-.55.59-1.28,1.56-.66,2.4l1.51-.71c.13-.06-.05-.56,0-.7a1.37,1.37,0,0,1,.93-1.06c-.3.4-.8,1-.52,1.58.5-.23,1.63-1.12,2.35-1.07-.13,0-1.84,1.16-2.09,1.28a4.63,4.63,0,0,0,1.43.47c-.67,0-1.48-.44-2-.2l-1.35.68a5.64,5.64,0,0,0,3.2.69,5.3,5.3,0,0,1-3.62-.47c-.35,0-.84.42-1.1.55-.74.37-.17.36-.09,1.05,2-.36,3.53.45,5.5.22a3,3,0,0,0,1.1-.24,2.42,2.42,0,0,1-.28-.79C207.41,122,207.25,121.76,207.32,121.58Z" transform="translate(-5.2 -7.55)"/><path class="cls-4" d="M197.93,122.85c.68,1.32,3.42,1,2.75-.31S197.26,121.53,197.93,122.85Z" transform="translate(-5.2 -7.55)"/><path class="cls-4" d="M197.67,123.26c-.35-.39-.12-.54-.71-.66l-1.42-.28c-.42-.08-1.66.75-2.48.71a2.55,2.55,0,0,0,1.74-.86l-2.33-.46c-.15,0-1.08.55-1.46.58a2.92,2.92,0,0,1-1-.11,2.32,2.32,0,0,0,1.91-.59c-.42-.08-2.83-.8-3-.77a13.74,13.74,0,0,1,3.19.5c-.22-.53-1.39-.85-2-1,.66.1,2.46.39,2.54,1.09a11,11,0,0,0,2.33.38,9.79,9.79,0,0,0-2.81-2.1c2,.18,2.37,2,4.05,2.31,0,0,2.21.21,1.27-.18l-1.9-.79c-.37-.16-4.49-4.22-4.75-2.07-.86-.34-2.2-.69-2.38.12a1.28,1.28,0,0,0,0,.61c.06.22-.88.27-1.15.41-1.39.73.39,1.77.95,2.61-.08.73.6,1.28,1.63,1.5s1.06,0,1.88.56c1.29.8,3.2-.63,3.85-1.13A11.92,11.92,0,0,1,197.67,123.26Z" transform="translate(-5.2 -7.55)"/><path class="cls-4" d="M193.16,118.8a11.79,11.79,0,0,0,2.77,1.47,4.62,4.62,0,0,1,1.91,1.27c.68-.4.38-.51,0-1.26-.22-.43-.91-.47-1.45-.74a4,4,0,0,1-2-2,8.09,8.09,0,0,0,3.12,2.13l-.82-1.65c-.14-.29-.31-.21-.7-.36a2.28,2.28,0,0,1-1.44-1.55,4.69,4.69,0,0,0,1.93,1.49,11,11,0,0,1-.72-2.11c.46.21.92,1.71,1.11,2.08a1.58,1.58,0,0,0,.57-1.83,1.32,1.32,0,0,1-.43,2.1c-.09.4.74,1.4,1,1.83,1.1-.5,1.25-1.87,1.35-2.77a2.46,2.46,0,0,1-.22,2.47c-.44.54-1,.45-.68,1.16s.22.6,1.18.85c-.55-1.37,2.76-3.86.55-5-.77-.39-.44-.55-1.13-1.12a1.91,1.91,0,0,0-1.29-.37c-.8,0-.74-.22-1.61-.53-1.43-.51-1.53.34-2.21.75-1.44.09-1.89.91-1.41,1.9C192.88,117.73,192.14,118,193.16,118.8Z" transform="translate(-5.2 -7.55)"/><path class="cls-4" d="M210.22,129.1a2.38,2.38,0,0,0-.74-1.48c1.91-.48,1.3-1.48-.51-2.16,1.72-2.3-7-1.69-7.66-2.32-.06.38.92,1.22,1.59,1.39a5.6,5.6,0,0,1,4.23.69c-1-.35-3-1-3.73-.36l2,1.3a1.43,1.43,0,0,0,.71.16,1.69,1.69,0,0,0-.34.08c.25.16,2.7,1.51,2.67,1.76s-2.61-1.31-2.73-1.39a4.76,4.76,0,0,0,.66,1.37,2,2,0,0,1-1.18-1.7,11.5,11.5,0,0,0-2-1.26c-.32.87.42,2,1.15,2.79a6.15,6.15,0,0,1-1.89-2.21c-.19-.46.2-.92-.32-1.24a5.85,5.85,0,0,0-1.2-.75,7.15,7.15,0,0,1-2.08.29c-.11.27-.45.7-.39,1,1.12,1.1,1.77,2.47,1.36,3.61-.2-.85-.41-2.6-1.5-3.26-.16.42-.68,1.06-.6,1.51.43.59,1.42,2,.44,2.34.19-.62-.29-1.26-.62-1.9-.11.27-.53,2.24-1.12,2.17-.06,0,.63-2.18.69-2.34a7.76,7.76,0,0,0-1.83,1.21,2.57,2.57,0,0,1,1.64-1.66c.71-.16.69-1,.87-1.51-1.46-.23-2.74,1-3.41,1.63a3.55,3.55,0,0,1,2.14-1.92c.6-.18,1.33.11,1.49-.36.11-.32,0-.83.57-.71-.86-.36-.34-.35-1,0a4.64,4.64,0,0,1-1.43.49c-1.18.22-2.85.6-3.08,1.56a1,1,0,0,0,.31.92s-.69,1-.55,1.27a2.76,2.76,0,0,0,1.6,1.05c1,.34.3,1.37,1.51,1.83a3.31,3.31,0,0,0,2.35-.25c.75-.32,2.28.79,2.56-.35a1.48,1.48,0,0,0,0-.72,2,2,0,0,0,1-.58c.41-1.41-1.89-2.73-2-4.09s.59-.83,1.39.23c.35.46.12,1.32.34,1.86a3.24,3.24,0,0,0,1.26,1.51,14.76,14.76,0,0,0,1.65.62,2.43,2.43,0,0,0,3.21.63C208.23,129.4,210.18,130.29,210.22,129.1Zm-3.41-2.77a2.9,2.9,0,0,1,1.83.45A8.6,8.6,0,0,0,206.81,126.33Z" transform="translate(-5.2 -7.55)"/><path class="cls-4" d="M217.39,120.83a3.51,3.51,0,0,1-.63.87c.38.12.39.29.7.17l.76-.27c.22-.08.22-.95.58-1.18a1,1,0,0,0-.18,1l1.24-.44c.08,0,.1-.66.24-.8a1,1,0,0,1,.5-.26.8.8,0,0,0-.42.94c.22-.08,1.66-.39,1.71-.48-.2.3-1.24.53-1.62.68a2.06,2.06,0,0,0,1.45,0c-.33.14-1.25.52-1.72.13a4.81,4.81,0,0,0-1.19.49,7.9,7.9,0,0,0,2.46.38c-.92.5-2.23-.48-3.09-.12,0,0-1,.55-.41.49l1.27-.12c.25,0,4.45,1.12,3.23-.23.56-.06,1.33-.27.9-.8a1.9,1.9,0,0,0-.39-.35c-.16-.11.2-.43.22-.6.12-.86-1.26-.93-2-1.26a1.49,1.49,0,0,0-1.59-.39c-.6.2-.47.3-1.11.25-1,0-.94,1.39-.9,1.88M216.9,122c-1.09-.58-2,.46-.93,1s2-.45.93-1m2.42.92a3.59,3.59,0,0,1-1.57-.16c0,.45.16.42.78.75.35.19.66,0,1.05,0a3.88,3.88,0,0,1,2,.57,6,6,0,0,0-2.6-.3l1.36.73c.23.13.26,0,.51,0a2.39,2.39,0,0,1,1.55.47,3.88,3.88,0,0,0-1.71-.29,16.76,16.76,0,0,1,1.6,1,7.75,7.75,0,0,1-1.74-.89c0,.45.43.92.9,1.26-.72-.3-1.19-.84-1.12-1.38a7.55,7.55,0,0,0-1.53-.79c-.14.63.64,1.49,1.16,2.06a3.32,3.32,0,0,1-1.44-1.53c-.16-.46.15-.59-.44-.9s-.46-.29-1-.14c1.07.64,1.26,3.14,2.86,3.13.56,0,.52.19,1.16.32a.9.9,0,0,0,.76-.18c.31-.27.44-.1,1-.18.9-.14.42-.67.44-1.13.53-.5.21-1.12-.6-1.56-.56-.31-.43-.7-1.33-.86a7.14,7.14,0,0,0-2.06,0m-8.56.93c.72,1.89,3.92-1.15,4.58-1a2.12,2.12,0,0,0-1.51-.33,2.15,2.15,0,0,1-2.16.89c.63-.1,1.83-.34,1.75-.93l-1.62-.16c-.52,0-.81.79-1.71.63.53-.09,1.26-.26,1.41-.66a11,11,0,0,1-2.18-.22c-.15-.17,1.88,0,2,0-.14-.1-1.11-.69-1.18-.61a2.24,2.24,0,0,1,1.59.64,8.5,8.5,0,0,0,1.6.13,4.31,4.31,0,0,0-2.2-1.3,6.78,6.78,0,0,1,2.14.73c.36.22.48.61.9.64a4.1,4.1,0,0,0,1,.08c0-.25.67-.81.67-.81a2.83,2.83,0,0,0-.45-.71,5,5,0,0,1-2.79-1.72,6.81,6.81,0,0,0,2.64,1.48,3.89,3.89,0,0,0-.69-1.08c-.54-.22-1.81-.75-1.63-1.25a4,4,0,0,0,1.43.94c-.13-.2-1.17-1.49-.88-1.63,0,0,1.09,1.49,1.17,1.6a3.44,3.44,0,0,0,0-1.28c.26.45.6,1.08.35,1.49s.32.79.58,1.17c.74-.31.48-1.46.39-2a2.14,2.14,0,0,1,.31,1.8c-.14.29-.61.35-.39.67s.5.5.2.6c.58-.05.36.11.43-.31a1.43,1.43,0,0,1,.28-.73c.35-.49.8-1.23.3-1.87a1.4,1.4,0,0,0-.7-.45,2.36,2.36,0,0,0-.56-.93,2,2,0,0,0-1.3-.13c-.62.11-1-.72-1.75-.62a1,1,0,0,0-.81.87c-.11.42-1.43.23-.83,1a2.35,2.35,0,0,0,.46.42c-.06,0-.13.52,0,.64.71,1,2.46,1,3.33,1.82s.27.67-.72.29c-.43-.17-.86-.74-1.29-1a3.5,3.5,0,0,0-1.45-.51,7.59,7.59,0,0,0-1.06.14c-1-.3-1.76-.12-1.71.61,0,.46-1.32.53-.61,1.24a3.15,3.15,0,0,0,1.23.65c-.5.84.37,1.24,1.53,1.09m6,3.66c.87.48.86,0,1.26-.27.82,0,.89-.44.67-.93-.46-1-1.73-1.83-1.83-2.87a.74.74,0,0,0-.53,1c.83.5,1.4,1.22,1.17,1.88a2.27,2.27,0,0,0-1.22-1.63l-.18.89c0,.08.37.32.44.4a1,1,0,0,1,.27.91,2,2,0,0,0-.76-1.1c-.06.29,0,1.17-.3,1.36.06,0,0-1.25.07-1.41a2.26,2.26,0,0,0-.88.16c.29-.19.88-.19.93-.49s.09-.55.13-.82a2.33,2.33,0,0,0-1.74.58c.21-.54,1-.79,1.78-.83.13-.12.08-.51.11-.67.07-.45-.15-.27-.61-.65-.59.83-2.08.86-2.75,1.6-.19.21-.15.49.26.65-1.22.89.57,1.22,1.17,1.94a1.7,1.7,0,0,0,2.54.32" transform="translate(-5.2 -7.55)"/><path class="cls-4" d="M240.31,134.81a15.15,15.15,0,0,1-1.93-1.11c-.22.34-.56.26-.28.65l.67.94c.2.28,2.06.72,2.59,1.22a4.83,4.83,0,0,0-2.24-.73l1.09,1.54c.07.1,1.42.44,1.72.66a2,2,0,0,1,.61.66,3.36,3.36,0,0,0-2-.92c.2.28,1,2,1.22,2.06-.66-.37-1.28-1.58-1.65-2.06-.47.31,0,1.12.22,1.55-.34-.43-1.27-1.59-.49-1.88-.1-.43-.86-1.1-1.18-1.51-.57.59-.5,1.64-.53,2.4-1.18-1.23.75-2.12-.11-3.21,0,0-1.3-1.38-1.1-.69.13.47.27.93.4,1.4.08.28-1.86,4.14.88,3.54a1.66,1.66,0,0,0,1.82,1.36,2.09,2.09,0,0,0,.69-.24c.22-.12.94.43,1.3.54,1.85.57,1.83-.85,2.43-1.48.93-.21,1.09-.8.63-1.49s-.69-.64-.66-1.3c0-1.06-3-1.68-4.05-1.9m-2.59-1.12c1.1-.86-1.21-2.38-2.31-1.51s1.21,2.37,2.31,1.51m-1.66,2.09c-.34-.5,0-1.15.16-1.58-1-.26-.87,0-1.5.44-.36.28.08.7.14,1.12a1.88,1.88,0,0,1-1,1.87,2.91,2.91,0,0,0,.33-2.6l-1.38,1.07c-.24.19,0,.26.06.54.2.61-.22,1.09-.82,1.4.26-.45.72-1.11.41-1.67a13,13,0,0,1-2,1.17c-.08-.35,1.38-1.14,1.68-1.39a3.75,3.75,0,0,0-2.58.31,2.75,2.75,0,0,1,2.79-.49c.53-.09,1.14-.93,1.49-1.22a8.25,8.25,0,0,0-4.24.17,5.19,5.19,0,0,1,3.09-.74c1,.07,1.28.46,1.86,0s.55-.34.19-1c-1.23.81-6.53-.27-6.31,1.43.08.59-.34.45-.53,1.06-.1.31.13.63.47.89.6.46.26.51.51,1.14.4,1,1.49.79,2.45,1a2.72,2.72,0,0,0,3.26.16c.59-.44,1.44-.1,1.66-1a4.47,4.47,0,0,0-.23-2.14m-3-9.53c-3.94-.21,2.92,4.73,2.64,5.35a1.07,1.07,0,0,0,.53-1.43c-1.27-.69-2.29-1.7-2.16-2.74.3.72.94,2.11,2.19,2.33l.15-1.63c0-.53-1.78-1.26-1.55-2.14a3.19,3.19,0,0,0,1.58,1.83c0-.21-.11-2.13.21-2.2s.28,2,.27,2.1c.2-.1,1.33-.82,1.15-.94.18.63-.46,1.14-1.18,1.36-.25.39-.06,1.17-.08,1.63a3.37,3.37,0,0,0,2.51-1.66A3.28,3.28,0,0,1,238,130c-.42.27-1.23.2-1.25.62,0,.19-.2.79,0,1a7.8,7.8,0,0,1,1.81,1.12,6.17,6.17,0,0,0,1.46-.12,4,4,0,0,1,3.33-2.08c-.87.42-2.81,1.16-2.83,2a9.75,9.75,0,0,0,2.22-.18c.4-.46,1.37-1.54,2.47-1.08a3.34,3.34,0,0,0-1.83,1c.4,0,3-.47,3.37-.1,0,0-3,.39-3.28.42a18.4,18.4,0,0,0,2.73.66,6.45,6.45,0,0,1-3.12-.38,4.49,4.49,0,0,0-2.41,0c.76.94,3.17,1.25,4.35,1.44a8.6,8.6,0,0,1-3.79-.59c-.64-.29-.81-.82-1.47-.75-.46.05-1,.28-1.25-.09.17.64-.18.32.7.61a7.34,7.34,0,0,1,1.6.68c1.09.62,2.72,1.47,4,1.27a1.17,1.17,0,0,0,.88-.51,5.94,5.94,0,0,0,1.9-.12c.43-.31.31-.87.12-1.31-.31-.71,1.42-.66,1.1-1.54-.21-.59-1.23-1-2-1.3-.9-.33-.67-1.63-2.22-1.39a2.62,2.62,0,0,0-.83.28,4.08,4.08,0,0,0-1.37-.36c-2,.26-1.92,2.08-3.47,2.6s-1.4-.06-.71-.9c.3-.37,1.48-.54,2-.86a1.8,1.8,0,0,0,.91-1.27c0-.43-.38-.82-.42-1.19.51-.87,0-1.8-1.51-2.12-1-.2-1.28-1.67-2.72-1.28a2.2,2.2,0,0,0-1.24,1c-1.89-1-2.65-.28-2.18,1M226,130.67c-.93.67.17.93.72,1.47,0,.85,1,1.16,2.06,1.18,2.1,0,3.7-.89,5.88-.47-.1-.45-1.4-1-2.16-1.06a4.25,4.25,0,0,1-3.87.27c1.09.12,2.75.21,3.32-.46L230,131c-.17-.06-.64.22-.81.26a3.35,3.35,0,0,1-1.91-.18,4.19,4.19,0,0,0,2.25-.25,11.64,11.64,0,0,1-2.93-1c.08.08,2.68.68,3,.79a2,2,0,0,0-.44-1c.44.4.52,1,1.15,1.23l1.76.56c.21-.68-.81-1.59-1.44-2.13a3.33,3.33,0,0,1,2,2.31,6.46,6.46,0,0,0,1.43.45c1,.31.55,0,1.32-.32-1.83-1-2.08-2.64-3.75-3.73-.48-.32-1.06-.41-1.35-.06-2-1.75-2.52,0-4,.25-1.83.36-1.76,1.51-.33,2.55" transform="translate(-5.2 -7.55)"/><path class="cls-4" d="M173,125.49a8.72,8.72,0,0,1,1.19.84c.19-.21.42-.14.27-.41l-.34-.65c-.1-.19-1.33-.59-1.63-1a3.15,3.15,0,0,0,1.45.61c-.19-.36-.38-.71-.56-1.07,0-.07-.92-.38-1.11-.53a1.15,1.15,0,0,1-.34-.47,2.12,2.12,0,0,0,1.3.72,15.3,15.3,0,0,0-.59-1.42c.41.28.69,1.11.88,1.44.36-.18.15-.73,0-1,.18.3.68,1.11.11,1.26,0,.29.46.77.63,1.06a2.41,2.41,0,0,0,.65-1.54c.66.87-.77,1.34-.31,2.1,0,0,.73,1,.68.52s-.07-.62-.11-.94,1.78-2.59-.18-2.36a1,1,0,0,0-1.09-1,2.1,2.1,0,0,0-.51.11c-.16.06-.6-.34-.83-.43-1.2-.48-1.36.45-1.85.82-.67.08-.85.46-.61.94s.39.46.3.89c-.15.68,1.88,1.28,2.57,1.48m1.65.89c-.86.5.55,1.62,1.41,1.13s-.55-1.63-1.41-1.13m1.39-1.27c.17.35-.13.75-.3,1,.63.23.59.08,1.08-.2.28-.16,0-.46,0-.74a1.38,1.38,0,0,1,.89-1.16c-.33.46-.75,1.08-.54,1.67l1.08-.62c.19-.11,0-.17,0-.36-.06-.41.28-.7.73-.86-.23.28-.63.68-.49,1.06a9.78,9.78,0,0,1,1.52-.64c0,.23-1.09.66-1.33.81a2.85,2.85,0,0,0,1.81,0,2,2,0,0,1-2,.15c-.38,0-.9.54-1.17.7a6,6,0,0,0,2.94.14,4,4,0,0,1-2.21.3c-.65-.1-.83-.38-1.28-.1s-.42.19-.25.64c.95-.45,4.46.57,4.52-.55,0-.39.29-.28.5-.66.1-.19,0-.42-.21-.61-.36-.34-.12-.35-.21-.77-.15-.69-.93-.6-1.56-.83a1.94,1.94,0,0,0-2.22-.3c-.46.25-1,0-1.26.54a2.53,2.53,0,0,0-.13,1.42m.92,6.4c2.69.37-1.43-3.26-1.17-3.65a.77.77,0,0,0-.54.9c.79.52,1.37,1.25,1.15,1.92-.11-.49-.39-1.44-1.23-1.65-.1.35,0,.59-.14.94s.91.56.65,1.61a1.87,1.87,0,0,0-.87-1.29c0,.13-.18,1.4-.41,1.42s.05-1.32.07-1.39c-.15.05-1,.46-.91.54,0-.42.46-.72,1-.81.22-.24.18-.76.25-1.06a2.65,2.65,0,0,0-1.93.93,2.43,2.43,0,0,1,1.13-1.16c.32-.15.87-.06.94-.33s.23-.51.15-.63A5,5,0,0,1,174,127a5,5,0,0,0-1,0,3.12,3.12,0,0,1-2.54,1.15c.65-.22,2.07-.58,2.19-1.16a8.09,8.09,0,0,0-1.55,0c-.33.28-1.13.92-1.83.56a2.69,2.69,0,0,0,1.38-.56c-.28,0-2.15.13-2.33-.14,0,0,2.14-.07,2.3-.07a11.15,11.15,0,0,0-1.8-.59,4.46,4.46,0,0,1,2.1.44,3.16,3.16,0,0,0,1.66.13c-.41-.66-2-1-2.81-1.2a6,6,0,0,1,2.54.61c.4.23.46.59.92.58s.72-.12.85.13c0-.43.16-.2-.41-.44a4.51,4.51,0,0,1-1-.54,4.64,4.64,0,0,0-2.62-1.07.93.93,0,0,0-.67.28,4.55,4.55,0,0,0-1.32,0,.69.69,0,0,0-.24.85c.12.48-1.05.35-.95.94.07.4.72.75,1.19,1s.26,1.1,1.36,1a2,2,0,0,0,.61-.13,2.74,2.74,0,0,0,.9.32c1.39-.05,1.57-1.24,2.71-1.49s1,.12.38.63c-.25.22-1.08.26-1.46.44a1.36,1.36,0,0,0-.78.78c-.08.28.16.56.14.8-.46.54-.24,1.17.78,1.47.64.19.68,1.16,1.72,1a1.69,1.69,0,0,0,1-.55c1.21.75,1.81.33,1.65-.55m5.41-2.46c.72-.38,0-.61-.32-1,.09-.55-.57-.82-1.28-.89-1.44-.15-2.65.36-4.1,0,0,.3.83.77,1.36.82a3.1,3.1,0,0,1,2.69.06c-.74-.14-1.87-.3-2.34.1l1.24.53c.11,0,.47-.11.59-.12a2.45,2.45,0,0,1,1.29.23,3.1,3.1,0,0,0-1.58,0,7.41,7.41,0,0,1,1.89.83c0-.06-1.76-.61-2-.69a1.16,1.16,0,0,0,.18.68c-.25-.29-.23-.7-.64-.87l-1.14-.47c-.23.43.36,1.08.73,1.48a2,2,0,0,1-1.09-1.63,4.89,4.89,0,0,0-.93-.38c-.63-.26-.38,0-1,.13,1.13.79,1.11,1.85,2.13,2.66a.76.76,0,0,0,.93.12c1.19,1.26,1.73.16,2.77.08,1.31-.13,1.4-.88.54-1.65" transform="translate(-5.2 -7.55)"/><path class="cls-4" d="M191.7,127.29a4.9,4.9,0,0,1,.82-1.14c-.5-.16-.51-.37-.92-.23l-1,.36c-.29.1-.28,1.25-.75,1.55a1.31,1.31,0,0,0,.23-1.36l-1.61.58c-.1,0-.13.86-.3,1a1.31,1.31,0,0,1-.65.34,1,1,0,0,0,.54-1.23c-.29.11-2.16.52-2.24.63.27-.39,1.62-.69,2.11-.9a2.72,2.72,0,0,0-1.89,0c.44-.18,1.62-.69,2.24-.18a5.75,5.75,0,0,0,1.55-.64,10.65,10.65,0,0,0-3.21-.5c1.19-.66,2.91.62,4,.15,0,0,1.35-.73.53-.65l-1.65.16c-.33,0-5.82-1.45-4.21.31-.73.08-1.74.35-1.17,1a2.28,2.28,0,0,0,.52.45c.21.15-.25.56-.28.78-.15,1.13,1.64,1.21,2.62,1.63a1.92,1.92,0,0,0,2.08.5c.78-.26.61-.39,1.45-.32,1.34.1,1.19-1.77,1.14-2.42" transform="translate(-5.2 -7.55)"/><path class="cls-4" d="M211.15,128.48c-1.54.46,0,2.34,1.55,1.88s0-2.34-1.55-1.88" transform="translate(-5.2 -7.55)"/><path class="cls-4" d="M219.76,137.48c2.65-.4-.93-2.48-3.08-3.84a5.05,5.05,0,0,1-1.57-2.16c-.42.2-.18,2.2.24,2.61,1.42.46,2.74,1.29,3,2.38-.55-.68-1.68-2-2.9-2,.17.57.34,1.13.5,1.7,0,.15.22.29.46.43a1.58,1.58,0,0,0-.37-.11c.06.21.93,2.15.67,2.28s-1-2-1.07-2.09a3.44,3.44,0,0,0-.71,1.12,1.16,1.16,0,0,1,.57-1.56c.07-.44-.4-1.21-.56-1.68a2.58,2.58,0,0,0-1.63,2.18,3,3,0,0,1,.44-2.19c.27-.36,1-.45.89-.88-.07-.2-.13-.85-.34-1-.23,0,.25-1-.17-1.2s-1.91.4-1.91.4a5.06,5.06,0,0,0-1.28.4,3,3,0,0,1-2.21,2.77c.62-.6,2.1-1.73,1.77-2.63a8,8,0,0,0-1.95.61c-.18.54-.64,1.84-1.81,1.59.75-.28.94-.88,1.25-1.41-.35.11-2.57,1.07-3,.76,0,0,2.6-1,2.8-1.06a15.77,15.77,0,0,0-2.73-.14,5.48,5.48,0,0,1,3-.21c.76.24,1.52-.26,2.18-.48-1.06-.82-3.36-.67-4.5-.63a7.51,7.51,0,0,1,3.67-.13c.69.18,1.06.68,1.63.49.4-.14,2.77-1,3.13-.67-.41-.62-3.88-.12-4.56-.35l-.48-.16a8.54,8.54,0,0,1-2.84.06,4.1,4.1,0,0,1-.73.16l-.7.09s0,0,0,0a4.61,4.61,0,0,0-1.68.49c-.26.4.05,1,.4,1.37.56.67-1,1-.4,1.79a3.88,3.88,0,0,0,2.28,1c1,.16,1.24,1.53,2.55,1a1.91,1.91,0,0,0,.65-.44,3.92,3.92,0,0,0,1.38.11c1.68-.64.93-2.5,2.13-3.33s1.29-.21,1,.79c-.13.44-1.13.84-1.45,1.26a1.64,1.64,0,0,0-.32,1.48c.13.45.66.76.84,1.14-.12,1,.67,1.85,2.19,1.87,1,0,1.81,1.45,3,.77a1.7,1.7,0,0,0,.75-1.23C220.28,139.6,220.69,138.73,219.76,137.48Zm-2.69-.5c.54.29,1.09.63,1.16,1.12A5.93,5.93,0,0,0,217.07,137Z" transform="translate(-5.2 -7.55)"/><path class="cls-4" d="M226.07,135a2.16,2.16,0,0,0,1.16-.48c.59-.65-.91-1-1-1.47-.14-.79-1.06-1.13-2-1-.39-.06-.74-.31-1.2-.35a2.8,2.8,0,0,0-1.45.28c-.4.2-.71.75-1.14.85-1,.23-1.56.2-.86-.45s2.64-.44,3.15-1.36a1.18,1.18,0,0,0-.21-.71,1.26,1.26,0,0,0,.39-.37c.44-.72-.95-.77-1.18-1.25a2,2,0,0,0-1.12-1.11c-.88-.26-1,.58-1.75.35a2.11,2.11,0,0,0-1.39-.1c-.23.1-.4.91-.36.91h0a2.31,2.31,0,0,1,0,.37,1.32,1.32,0,0,1-.1.39,2.35,2.35,0,0,1,.16,1.47l.2.24c.28.33.05,2.17.7,2.33-.36-.16.32-1.46.42-1.68s-.38-.46-.61-.81a2.14,2.14,0,0,1-.15-1.91c.05.59.08,1.8,1,2.28.18-.36.61-.79.31-1.17a1.58,1.58,0,0,1,0-1.56,4.8,4.8,0,0,0,.35,1.4,17.29,17.29,0,0,1,.84-1.53c.35.21-.44,1.43-.52,1.62.5-.21,1.09-.35,1.31-.76.34.59-.91.93-1.44,1.06-.28.21-.33.77-.46,1.06.93.1,1.94-.75,2.48-1.12a3.13,3.13,0,0,1-2.59,1.36c-.18.13-.22.51-.3.69,0,0-.51.77-.25,1s1.19-.12,1.21,0a4.34,4.34,0,0,0,1,.1c.44,0,.47-.36.81-.53a5.19,5.19,0,0,1,2.15-.4c-.82.14-1.77.42-2.05,1a9.41,9.41,0,0,0,1.72.16,1.68,1.68,0,0,1,1.51-.42,4,4,0,0,0-1.06.46c.11,0,2.29.23,2.17.39a11.27,11.27,0,0,1-2.33-.17l.14.18a1.11,1.11,0,0,0-.46-.21l-1.73-.13c.08.63,1.45,1.12,2.17,1.35a3.7,3.7,0,0,1-2.61-1.38,5.39,5.39,0,0,0-2.62.08,6.6,6.6,0,0,1,2.27.65c1.52,1,3.87,2.7,4.06,1.29C226,136.28,226.83,136,226.07,135Zm-.89.1a2,2,0,0,1-1.21-.52A6,6,0,0,0,225.18,135.05Z" transform="translate(-5.2 -7.55)"/><path class="cls-4" d="M224.34,141.92c.86.32.7-.15,1-.43.69-.08.61-.53.28-1-.67-.86-2-1.42-2.35-2.35-.33.08-.39.66-.15,1,.83.33,1.51.91,1.51,1.55a2.62,2.62,0,0,0-1.48-1.31c0,.28.07.56.11.84,0,.07.39.24.48.3a1.1,1.1,0,0,1,.49.79,2.22,2.22,0,0,0-.95-.89c0,.27.36,1.06.15,1.28,0,0-.33-1.15-.36-1.29a1.6,1.6,0,0,0-.68.27c.19-.21.67-.3.63-.58s-.09-.51-.13-.77a1.57,1.57,0,0,0-1.26.78c0-.53.59-.86,1.22-1,.07-.13-.08-.47-.11-.62-.07-.42-.2-.22-.7-.51-.24.84-1.47,1.09-1.8,1.86-.1.22,0,.47.4.56-.75,1,.82,1,1.53,1.6.9.73,1.82.6,2.2-.08" transform="translate(-5.2 -7.55)"/><path class="cls-4" d="M183.26,134.33c.3-.24,2.1-.18,2.73-.38a15,15,0,0,1-2.39-.33c-.49,0-.66.22-1,.36a5.84,5.84,0,0,1-2.44.25,7.8,7.8,0,0,0,2.79-.64l-1.89-.1c-.33,0-.28.06-.51.17a3.64,3.64,0,0,1-1.89.16,5.28,5.28,0,0,0,1.91-.36c-.12,0-2.47-.21-2.36-.25a14.11,14.11,0,0,1,2.39.1,3.48,3.48,0,0,0-1.83-.67,2.8,2.8,0,0,1,2.14.68,12.9,12.9,0,0,0,2.1.09c-.33-.53-1.76-.93-2.68-1.19a6.67,6.67,0,0,1,2.57.69c.5.3.29.51,1.11.54a5.87,5.87,0,0,1,2.25.35,10.84,10.84,0,0,0-2.38-.94c-1.3-.55-2.75-1.49-3.93-1.08-.55.19-.65,0-1.38.15a.73.73,0,0,0-.62.39c-.1.31-.36.22-.84.47-.79.41.09.66.41,1-.16.56.63.93,1.76,1,.78,0,.95.39,2,.21a8.44,8.44,0,0,0,2.06-.68" transform="translate(-5.2 -7.55)"/><path class="cls-4" d="M214.32,114.45a22.29,22.29,0,0,1-2.24-.29,11.48,11.48,0,0,1,1.82.78c.38.13.56,0,.89-.06a4.79,4.79,0,0,1,2,.33,6.25,6.25,0,0,0-2.33-.09l1.47.49c.25.08.23,0,.43,0a3,3,0,0,1,1.52.28,4.25,4.25,0,0,0-1.58-.13c.09,0,1.91.7,1.81.71a12.1,12.1,0,0,1-1.87-.59,2.85,2.85,0,0,0,1.32.93,2.32,2.32,0,0,1-1.55-1,10.18,10.18,0,0,0-1.64-.52c.16.5,1.2,1.12,1.88,1.53a5.37,5.37,0,0,1-1.89-1.11c-.34-.34-.13-.47-.77-.67a5,5,0,0,1-1.71-.76,9.11,9.11,0,0,0,1.69,1.26c.92.72,1.88,1.78,2.89,1.71.47,0,.52.12,1.12.18.3,0,.48-.05.56-.18s.33-.1.76-.19c.7-.15.06-.55-.12-.9.23-.41-.31-.88-1.19-1.18-.61-.21-.67-.52-1.51-.59a6.52,6.52,0,0,0-1.74.09" transform="translate(-5.2 -7.55)"/><path class="cls-4" d="M204.83,114c-.31.22-1.32,0-1.88,0,.34.44.63.54,1.54.73.52.1.69-.15,1.09-.24a5.87,5.87,0,0,1,2.58.1,7.2,7.2,0,0,0-2.94.29l2,.4c.35.07.3,0,.53-.11a3.63,3.63,0,0,1,2,.11,5.16,5.16,0,0,0-2,.1c.13,0,2.62.61,2.5.64a15.2,15.2,0,0,1-2.53-.47,4.25,4.25,0,0,0,2,1,3.44,3.44,0,0,1-2.29-1.08,13.57,13.57,0,0,0-2.23-.42c.37.65,1.89,1.3,2.89,1.73a7.54,7.54,0,0,1-2.71-1.14c-.54-.41,0-.71-.9-.81s-1.11-.14-1.4-.39c.2.72,3.78,3.25,5.43,2.88.58-.13.69.07,1.46.05.38,0,.58-.16.64-.34.1-.33.37-.19.87-.39.82-.33-.12-.74-.47-1.19.15-.6-.7-1.13-1.9-1.38-.83-.17-1-.58-2.08-.53a7.32,7.32,0,0,0-2.15.42" transform="translate(-5.2 -7.55)"/><path class="cls-4" d="M225.55,124c.35.29.24,2,.3,2.43.6-1,.85-1,.81-2,0-.36-.29-.54-.47-.85a2.16,2.16,0,0,1-.16-1.82,3.65,3.65,0,0,0,.75,2.2l.35-1.31c.06-.23-.08-.22-.22-.42a1.32,1.32,0,0,1-.07-1.39,2.32,2.32,0,0,0,.38,1.48,9.89,9.89,0,0,1,.63-1.6c.16.26-.32,1.38-.39,1.67a1.88,1.88,0,0,0,1.24-1.09,1.47,1.47,0,0,1-1.29,1.31c-.25.24-.26,1.12-.34,1.47.89-.07,1.65-1,2.16-1.53a2.84,2.84,0,0,1-1.36,1.61c-.53.26-.71.14-.84.71a3.75,3.75,0,0,1-.9,1.61c1.51-.86,4.18-2.35,3.83-4.07-.09-.46,0-.48-.1-1a.79.79,0,0,0-.57-.56c-.48-.17-.32-.33-.67-.75-.58-.69-1.06-.15-1.66,0a1.3,1.3,0,0,0-1.77.93c-.15.54-.72.55-.52,1.33a5.5,5.5,0,0,0,.88,1.65" transform="translate(-5.2 -7.55)"/><path class="cls-4" d="M176.28,119.48c0,.51-.83,1.08-1.35,1.47.92.35,1,.14,2.06-.24.62-.22.43-.67.67-1.07a4.29,4.29,0,0,1,2.5-1.65c-1,.65-2.19,1.54-2.3,2.41l2.4-.85c.41-.15.23-.24.33-.51.22-.6,1.06-1,2-1.22-.64.4-1.65,1-1.71,1.52.15,0,3.25-1,3.19-.88-.17.34-2.45.92-3,1.12a6.06,6.06,0,0,0,3.22,0,4.65,4.65,0,0,1-3.6.14,12.1,12.1,0,0,0-2.63,1c1.24.6,3.54.42,5.05.31a9.8,9.8,0,0,1-4.13.35c-1.06-.17-1.14-.58-2.16-.2s-.9.26-1,.92c2-.62,7.38,1,8.39-.64.35-.57.73-.39,1.41-.94a.6.6,0,0,0,.12-.89c-.36-.5.08-.51.25-1.13.29-1-1.14-.91-2.08-1.26-.7-.9-2.2-1-3.66-.52-1,.34-1.75-.07-2.65.73a5,5,0,0,0-1.37,2" transform="translate(-5.2 -7.55)"/><path class="cls-4" d="M194.13,131.54c-.29.09-2.8-.64-5.49-.83s-5.56,0-6.48.54a23.42,23.42,0,0,1,8,.19,22.57,22.57,0,0,1,3.11.88,5.38,5.38,0,0,0,1.9.08,10.13,10.13,0,0,1,4.26,1.44c-1.63-.69-3.88-1.32-5-1.12a29.64,29.64,0,0,1,3,1.3c.5.25.49.12.93.17a6.35,6.35,0,0,1,3,1.42,8.79,8.79,0,0,0-3.23-1.21,19.93,19.93,0,0,1,3.17,2.22c-.51-.19-2.67-1.77-3.34-2.06a6.67,6.67,0,0,0,2,2.15c-1.24-.76-2.23-1.64-2.41-2.39a14.19,14.19,0,0,0-3.27-1.4c.35.86,2.23,2.15,3.2,3.08a19.42,19.42,0,0,1-3.24-2.37c-.65-.63-.25-.83-1.59-1.25s-6.29-1.7-10-.78c3.63-.21,7.49.41,9.5,1.5,2.82,1.49,3.92,3.4,5.46,3.65.88.17.85.41,1.85.84a1.64,1.64,0,0,0,1.21.13c.51-.2.71.1,1.62.33,1.52.43.8-.65.78-1.31.94-.33.27-1.58-1.57-2.76-1.26-.77-1.28-1.36-3.24-1.95a13,13,0,0,0-4-.49" transform="translate(-5.2 -7.55)"/><path class="cls-4" d="M226.49,140.15c-.08-.36-1.55-1.32-1.92-1.84a14.66,14.66,0,0,0,2.12,1.08c.41.26.38.55.59.87a5.36,5.36,0,0,0,1.77,1.57,7,7,0,0,1-1.8-2.08l1.57,1c.27.17.18.21.29.42a3.38,3.38,0,0,0,1.39,1.19,4.79,4.79,0,0,1-1.29-1.36c.1.06,2.1,1.22,2,1.12a12.5,12.5,0,0,0-2-1.26,3.46,3.46,0,0,1,1.89.5,2.81,2.81,0,0,0-2.14-.66,12,12,0,0,1-1.73-1.11c.62-.24,2,.25,2.91.56a6.37,6.37,0,0,0-2.49-.89c-.59,0-.57.24-1.24-.19a5.44,5.44,0,0,0-2-1,10.45,10.45,0,0,1,2.5.59c1.4.29,3.16.36,3.83,1.35.31.46.5.39,1,.89a.62.62,0,0,1,.23.66c-.12.3.14.38.36.85.36.77-.5.47-1,.58-.24.53-1.11.39-2.05-.2-.65-.4-1-.22-1.69-.94a9.11,9.11,0,0,1-1.17-1.7" transform="translate(-5.2 -7.55)"/><path class="cls-4" d="M336.82,79.29a1.48,1.48,0,0,1-.51.73.91.91,0,0,1-.43,1,2.22,2.22,0,0,1-.52.23c.06,1.21,1.53,1.69,3.21,1.35.63.91,1.25.36,2.11.3a1.5,1.5,0,0,0,2.09-.68c.6-1.29-.18-2.74,1-3.88a2.14,2.14,0,0,0-2,.8,1.65,1.65,0,0,1-.67,2.53c.45-.62,1-1.6.29-2.29l-1.34.86c-.12.08.12.51.13.64a1.24,1.24,0,0,1-.74,1.09c.23-.41.62-1.06.28-1.51-.44.28-1.4,1.25-2.09,1.3.12,0,1.6-1.31,1.82-1.46a4.93,4.93,0,0,0-1.43-.24c.64-.06,1.48.2,1.91-.08l1.2-.8A5.67,5.67,0,0,0,338,79a5.41,5.41,0,0,1,3.54-.06c.33-.07.74-.5,1-.65.66-.44.11-.35-.06-1-1.84.6-3.44.07-5.3.54a3,3,0,0,0-1,.37,2.23,2.23,0,0,1,.38.69C336.69,79,336.87,79.12,336.82,79.29Z" transform="translate(-5.2 -7.55)"/><path class="cls-4" d="M345.63,76.85c-.84-1.12-3.42-.46-2.59.66S346.47,78,345.63,76.85Z" transform="translate(-5.2 -7.55)"/><path class="cls-4" d="M345.83,76.45c.39.31.2.48.78.51L348,77c.41,0,1.49-.91,2.27-1a2.42,2.42,0,0,0-1.54,1l2.29.11c.15,0,1-.65,1.31-.73a2.89,2.89,0,0,1,1,0,2.29,2.29,0,0,0-1.75.8c.41,0,2.83.35,3,.29a14.18,14.18,0,0,1-3.12,0c.28.45,1.45.59,2.08.65-.65,0-2.41,0-2.59-.65a11.55,11.55,0,0,0-2.28,0,9.79,9.79,0,0,0,3,1.54c-1.91.11-2.56-1.54-4.21-1.56,0,0-2.14.11-1.19.33l1.93.46c.38.09,4.91,3.25,4.85,1.25.87.19,2.21.33,2.26-.43a1.11,1.11,0,0,0-.13-.55c-.09-.19.81-.37,1.05-.53,1.23-.85-.63-1.57-1.28-2.26,0-.68-.75-1.09-1.78-1.15s-1,.1-1.88-.26c-1.35-.56-3,1-3.53,1.55A12.84,12.84,0,0,1,345.83,76.45Z" transform="translate(-5.2 -7.55)"/><path class="cls-4" d="M350.79,79.91a12.12,12.12,0,0,0-2.87-1,4.69,4.69,0,0,1-2-.9c-.6.46-.29.52.17,1.15.27.36.94.31,1.49.48a3.86,3.86,0,0,1,2.18,1.54,7.87,7.87,0,0,0-3.29-1.52l1,1.4c.18.24.33.15.72.24a2.19,2.19,0,0,1,1.6,1.22,4.6,4.6,0,0,0-2.06-1.1c.07.09,1.17,1.88,1,1.83-.47-.13-1.12-1.44-1.36-1.75a1.41,1.41,0,0,0-.29,1.75,1.19,1.19,0,0,1,.11-2c0-.37-.91-1.18-1.19-1.54-1,.61-.93,1.88-.9,2.72a2.19,2.19,0,0,1-.14-2.29c.34-.56.95-.56.48-1.16s-.3-.52-1.25-.62c.73,1.17-2.1,3.91.19,4.64.79.25.5.44,1.24.87a1.91,1.91,0,0,0,1.29.16c.76-.14.74.1,1.61.26,1.44.27,1.42-.52,2-1,1.37-.28,1.68-1.09,1.08-1.93C351.2,80.85,351.87,80.49,350.79,79.91Z" transform="translate(-5.2 -7.55)"/><path class="cls-4" d="M333,72.81a2.26,2.26,0,0,0,.92,1.26c-1.76.7-1,1.53.79,1.9-1.32,2.33,6.94.6,7.67,1.08,0-.36-1.05-1-1.73-1.06a5.67,5.67,0,0,1-4.15,0c1,.18,3,.49,3.62-.17L338,74.85a1.42,1.42,0,0,0-.7,0,1.43,1.43,0,0,0,.31-.12,15.3,15.3,0,0,1-2.81-1.24c0-.25,2.68.84,2.81.9a4.87,4.87,0,0,0-.83-1.17,1.82,1.82,0,0,1,1.37,1.39,11.52,11.52,0,0,0,2.1.88c.19-.84-.68-1.74-1.5-2.4a5.82,5.82,0,0,1,2.12,1.77c.24.4-.06.87.48,1.09a6,6,0,0,0,1.26.53,7.36,7.36,0,0,1,1.95-.55c.06-.26.33-.7.24-1-1.23-.85-2.05-2-1.82-3.12.32.75.76,2.33,1.9,2.78.1-.4.5-1.06.36-1.47-.49-.48-1.64-1.63-.76-2.08-.1.6.46,1.11.86,1.66.06-.27.19-2.12.76-2.14.06,0-.3,2.08-.33,2.24a7.53,7.53,0,0,0,1.58-1.35A2.39,2.39,0,0,1,346,73.18c-.65.24-.52,1-.62,1.5,1.43,0,2.48-1.33,3-2a3.35,3.35,0,0,1-1.78,2c-.55.25-1.29.08-1.38.53s.1.76-.45.72c.88.21.37.28,1-.13a4.65,4.65,0,0,1,1.3-.65c1.1-.36,2.65-.93,2.73-1.85a.93.93,0,0,0-.43-.8s.53-1,.35-1.24a2.73,2.73,0,0,0-1.68-.74c-1-.17-.48-1.21-1.71-1.47a3.35,3.35,0,0,0-2.22.55c-.67.39-2.3-.41-2.4.67a1.28,1.28,0,0,0,.14.65c0-.07-.82.49-.84.66-.19,1.35,2.2,2.24,2.46,3.47s-.45.84-1.37,0c-.4-.38-.3-1.19-.59-1.65a3.14,3.14,0,0,0-1.42-1.21,16.66,16.66,0,0,0-1.67-.35,2.44,2.44,0,0,0-3.16-.14C334.84,72.27,332.84,71.72,333,72.81Zm3.67,2.07a3,3,0,0,1-1.81-.16A8.65,8.65,0,0,0,336.64,74.88Z" transform="translate(-5.2 -7.55)"/><path class="cls-4" d="M327.28,81.34a3.3,3.3,0,0,1,.48-.88c-.38-.06-.41-.21-.7-.06l-.69.35c-.2.1-.08.9-.39,1.16a.89.89,0,0,0,0-1l-1.12.57c-.07,0,0,.62-.11.76a1.06,1.06,0,0,1-.44.31.71.71,0,0,0,.26-.92c-.2.1-1.53.59-1.57.67.15-.3,1.11-.65,1.45-.84a2.11,2.11,0,0,0-1.39.22c.3-.17,1.12-.65,1.62-.35a4.31,4.31,0,0,0,1.07-.61,8.46,8.46,0,0,0-2.41,0c.81-.58,2.21.13,3-.31,0,0,.91-.65.33-.51l-1.2.28c-.23,0-4.43-.42-3.06.65-.53.13-1.24.42-.75.86a1.82,1.82,0,0,0,.43.26c.17.08-.13.42-.13.58,0,.8,1.34.68,2.1.88a1.51,1.51,0,0,0,1.58.14c.54-.26.4-.33,1-.38,1-.08.71-1.38.6-1.83m.3-1.15c1.13.38,1.88-.69.75-1.07s-1.88.69-.75,1.07m-2.45-.51a3.54,3.54,0,0,1,1.53-.06c0-.42-.21-.36-.85-.58-.37-.12-.64.09-1,.15a3.9,3.9,0,0,1-2-.24,6.11,6.11,0,0,0,2.53-.08l-1.41-.48c-.24-.08-.25,0-.49.07a2.37,2.37,0,0,1-1.55-.22,4,4,0,0,0,1.68,0,14,14,0,0,1-1.68-.73,7.46,7.46,0,0,1,1.79.58c0-.41-.54-.78-1-1,.74.18,1.26.61,1.27,1.11a7.15,7.15,0,0,0,1.58.51c.05-.6-.83-1.28-1.4-1.73a3.15,3.15,0,0,1,1.6,1.21c.22.4-.06.56.55.76s.48.2,1,0c-1.12-.44-1.65-2.7-3.19-2.47-.53.08-.52-.1-1.15-.13a.84.84,0,0,0-.7.27c-.25.28-.41.15-.92.3-.84.25-.3.67-.26,1.09-.44.53,0,1,.8,1.35.58.2.51.58,1.4.6a8.28,8.28,0,0,0,2-.27m8.07-2c-1-1.63-3.59,1.58-4.25,1.52a2.18,2.18,0,0,0,1.5.1,2.09,2.09,0,0,1,1.94-1.11c-.59.18-1.71.56-1.55,1.09l1.57-.07c.51,0,.66-.83,1.55-.81-.5.15-1.17.41-1.26.8a11.75,11.75,0,0,1,2.12-.1c.17.13-1.8.28-1.89.28a4.86,4.86,0,0,0,1.21.4,2.19,2.19,0,0,1-1.61-.37,8.08,8.08,0,0,0-1.55.1,4.26,4.26,0,0,0,2.29.89,7,7,0,0,1-2.16-.38c-.38-.15-.55-.49-.95-.46a4,4,0,0,0-.93.06c.06.22-.52.84-.52.83a2.49,2.49,0,0,0,.54.59,4.87,4.87,0,0,1,2.92,1.2,6.65,6.65,0,0,0-2.73-1c.22.25.48.72.82.9.55.12,1.84.44,1.74.92a4.13,4.13,0,0,0-1.5-.67c.15.16,1.33,1.21,1.08,1.37,0,0-1.25-1.21-1.35-1.31a3.15,3.15,0,0,0,.18,1.17c-.32-.37-.73-.91-.55-1.31s-.42-.68-.72-1c-.66.39-.25,1.4-.08,1.9a1.89,1.89,0,0,1-.55-1.6c.09-.29.54-.4.28-.67s-.55-.39-.28-.52c-.55.12-.36-.05-.37.34a1.29,1.29,0,0,1-.17.71c-.26.5-.59,1.23,0,1.76a1.4,1.4,0,0,0,.73.32,1.32,1.32,0,0,0,1.94.71c.58-.18,1,.53,1.77.33a1,1,0,0,0,.65-.91c0-.4,1.33-.41.66-1a2.26,2.26,0,0,0-.5-.32c.06,0,.05-.49-.06-.59-.81-.79-2.51-.62-3.45-1.21s-.35-.58.64-.36a12.2,12.2,0,0,1,1.37.73,3.61,3.61,0,0,0,1.46.27,7.17,7.17,0,0,0,1-.27c1,.14,1.7-.13,1.55-.79-.1-.41,1.19-.66.4-1.22a3.13,3.13,0,0,0-1.27-.43c.34-.86-.55-1.11-1.64-.81M327,75.13c-.9-.32-.82.15-1.17.42-.79.08-.79.52-.51.94.58.87,1.92,1.44,2.16,2.37a.68.68,0,0,0,.37-1c-.86-.34-1.51-.92-1.38-1.56a2.11,2.11,0,0,0,1.4,1.32c0-.28,0-.56,0-.84,0-.07-.4-.24-.48-.31a.86.86,0,0,1-.39-.8,1.84,1.84,0,0,0,.89.9c0-.27-.19-1.06.09-1.28-.05,0,.14,1.15.14,1.29a2.26,2.26,0,0,0,.82-.26c-.25.21-.82.3-.82.57s0,.51,0,.77a2.31,2.31,0,0,0,1.58-.76c-.12.53-.84.86-1.58,1-.11.13,0,.47,0,.62,0,.42.18.22.68.52.44-.83,1.87-1.07,2.41-1.84.16-.22.07-.47-.34-.56,1.05-1-.72-1-1.4-1.61a1.71,1.71,0,0,0-2.49.06" transform="translate(-5.2 -7.55)"/><path class="cls-4" d="M303.34,71.68a15.3,15.3,0,0,1,2,.75c.16-.34.5-.32.18-.64l-.77-.77c-.23-.23-2.08-.38-2.65-.76a4.75,4.75,0,0,0,2.25.36l-1.27-1.26c-.08-.08-1.42-.21-1.74-.37a2,2,0,0,1-.68-.52,3.35,3.35,0,0,0,2.1.56c-.23-.23-1.27-1.65-1.46-1.72.68.25,1.45,1.28,1.87,1.66.41-.35-.13-1-.43-1.39.39.34,1.44,1.28.74,1.66.16.38,1,.89,1.35,1.22a3.22,3.22,0,0,0,.16-2.27c1.3,1-.42,2,.56,2.92,0,0,1.44,1.08,1.15.48-.19-.41-.39-.82-.58-1.22-.12-.24,1.19-4-1.35-3.11a1.63,1.63,0,0,0-1.94-1,2.64,2.64,0,0,0-.63.31c-.19.14-1-.26-1.32-.32-1.85-.27-1.63,1-2.12,1.69-.86.32-.93.88-.39,1.45s.75.5.82,1.1c.11,1,3.12,1.13,4.15,1.19m2.64.67c-.93.94,1.5,2,2.43,1.07s-1.5-2-2.43-1.07m1.29-2.14c.39.41.18,1.05.07,1.46,1,.11.84-.08,1.37-.6.3-.3-.17-.63-.29-1a1.69,1.69,0,0,1,.66-1.84,2.56,2.56,0,0,0,.06,2.42l1.17-1.17c.2-.2,0-.24-.13-.49-.28-.53.05-1,.59-1.39-.18.45-.53,1.11-.16,1.58a12.21,12.21,0,0,1,1.75-1.34c.12.31-1.16,1.24-1.41,1.5a3.78,3.78,0,0,0,2.43-.63,2.69,2.69,0,0,1-2.61.82c-.5.15-1,1-1.25,1.31a8.28,8.28,0,0,0,4-.74,5.18,5.18,0,0,1-2.85,1.1c-.93.07-1.29-.25-1.78.26s-.48.39,0,.94c1.07-.91,6.3-.64,5.84-2.17-.16-.53.26-.46.36-1,.05-.3-.21-.56-.58-.75-.64-.34-.33-.43-.65-1-.53-.88-1.54-.52-2.5-.62a2.73,2.73,0,0,0-3.14.29c-.5.48-1.37.29-1.45,1.12a3.72,3.72,0,0,0,.5,2m4.25,8.31c3.8-.35-3.47-3.93-3.29-4.53a1,1,0,0,0-.3,1.38c1.31.46,2.44,1.24,2.46,2.21-.39-.62-1.21-1.8-2.43-1.83l.09,1.51c0,.49,1.89.91,1.79,1.74a3.07,3.07,0,0,0-1.77-1.46c0,.19.41,1.93.11,2s-.55-1.79-.56-1.88c-.18.12-1.15.93-1,1-.26-.56.28-1.11.94-1.4.18-.39-.11-1.08-.16-1.5a3.19,3.19,0,0,0-2.17,1.86,2.94,2.94,0,0,1,1-1.91c.36-.31,1.15-.35,1.11-.74,0-.18.08-.75-.09-.9a7.53,7.53,0,0,1-1.89-.78,6.09,6.09,0,0,0-1.38.31,3.83,3.83,0,0,1-2.9,2.35c.77-.5,2.53-1.44,2.42-2.25a9.68,9.68,0,0,0-2.1.47c-.32.47-1.1,1.59-2.21,1.33a3.29,3.29,0,0,0,1.6-1.19c-.38.08-2.84.85-3.21.55,0,0,2.85-.77,3.08-.83a17.6,17.6,0,0,0-2.71-.23,6.5,6.5,0,0,1,3-.07,4.57,4.57,0,0,0,2.31-.34c-.86-.76-3.22-.72-4.37-.73a8.76,8.76,0,0,1,3.71,0c.65.18.89.64,1.52.49.43-.11.92-.39,1.21-.09-.26-.56.13-.32-.76-.46a7.11,7.11,0,0,1-1.62-.4c-1.13-.42-2.81-1-4-.61a1.12,1.12,0,0,0-.77.58,5.92,5.92,0,0,0-1.8.37c-.36.34-.18.83.07,1.22.4.61-1.26.8-.84,1.56.29.52,1.33.78,2.06.92.91.18.87,1.4,2.32,1a2.69,2.69,0,0,0,.76-.37,4.31,4.31,0,0,0,1.36.15c1.85-.5,1.54-2.16,2.95-2.85s1.35-.14.81.73c-.24.38-1.34.69-1.76,1a1.65,1.65,0,0,0-.69,1.29c0,.4.48.69.57,1-.37.87.22,1.65,1.74,1.73.95,0,1.47,1.35,2.78.8a2.06,2.06,0,0,0,1.05-1c1.95.61,2.58-.15,1.95-1.28m6.14-5c.79-.74-.3-.82-.9-1.25-.13-.77-1.16-.92-2.14-.8-2,.25-3.41,1.32-5.57,1.23.16.4,1.49.77,2.22.68a4.29,4.29,0,0,1,3.66-.78c-1.06,0-2.67.19-3.11.87l1.92.32c.17,0,.58-.29.74-.35a3.51,3.51,0,0,1,1.86-.1,4.26,4.26,0,0,0-2.12.53,12,12,0,0,1,2.95.52c-.09-.06-2.66-.26-3-.31a1.83,1.83,0,0,0,.57.86c-.48-.31-.65-.87-1.27-1l-1.76-.27c-.11.65,1,1.34,1.68,1.75a3.19,3.19,0,0,1-2.24-1.84,7.24,7.24,0,0,0-1.43-.22c-1-.15-.52.1-1.22.47,1.9.7,2.37,2.13,4.12,2.9.51.22,1.08.23,1.31-.13,2.21,1.32,2.42-.33,3.78-.77,1.7-.53,1.46-1.57-.06-2.34" transform="translate(-5.2 -7.55)"/><path class="cls-4" d="M369.13,71.05a8.16,8.16,0,0,1-1.26-.61c-.15.22-.38.18-.21.41l.42.55c.13.16,1.36.36,1.7.65a3,3,0,0,0-1.48-.36l.69.9c0,.06.94.22,1.13.34a1.09,1.09,0,0,1,.39.38,2.18,2.18,0,0,0-1.35-.49,13,13,0,0,0,.77,1.22c-.43-.2-.81-.92-1.05-1.2-.32.21,0,.69.11.94-.22-.25-.81-.93-.28-1.14-.06-.26-.55-.64-.76-.88a2.25,2.25,0,0,0-.41,1.49c-.76-.71.55-1.33,0-2,0,0-.84-.79-.72-.38l.24.84c.05.17-1.34,2.61.51,2.13a1,1,0,0,0,1.18.77,2.17,2.17,0,0,0,.47-.17c.15-.08.62.23.85.28,1.22.28,1.24-.59,1.66-1,.63-.16.75-.53.45-.94s-.44-.37-.41-.77c.07-.64-1.95-.91-2.64-1m-1.7-.59c.75-.57-.76-1.41-1.51-.84s.75,1.41,1.51.84m-1.16,1.35c-.21-.29,0-.7.14-1-.64-.12-.58,0-1,.33-.24.18,0,.43.07.68a1.25,1.25,0,0,1-.69,1.18c.26-.46.57-1.09.28-1.6l-.95.71c-.16.12,0,.16,0,.33.12.37-.17.68-.58.89.18-.29.5-.71.31-1a10.47,10.47,0,0,1-1.36.79c0-.21.95-.76,1.16-.92a2.81,2.81,0,0,0-1.73.29,2,2,0,0,1,1.88-.41c.36-.07.78-.61,1-.8a6.11,6.11,0,0,0-2.84.27,3.88,3.88,0,0,1,2.08-.57c.64,0,.85.23,1.24-.08s.38-.23.15-.62c-.84.54-4.36.08-4.25,1.12,0,.36-.24.29-.38.67-.07.19.07.38.29.53.39.26.16.31.31.68.24.61,1,.43,1.61.54a1.94,1.94,0,0,0,2.17,0c.4-.29,1-.12,1.13-.66a2.27,2.27,0,0,0-.08-1.31m-1.79-5.73c-2.63,0,1.84,2.79,1.64,3.18a.69.69,0,0,0,.38-.9c-.83-.37-1.49-1-1.38-1.6.18.43.58,1.26,1.41,1.35,0-.34,0-.54,0-.88s-.95-.39-.85-1.38a1.79,1.79,0,0,0,1,1.06c0-.13,0-1.3.19-1.35s.14,1.22.13,1.28.9-.56.79-.62c.1.38-.33.72-.82.88-.17.25-.07.72-.09,1A2.52,2.52,0,0,0,368.6,67a2.24,2.24,0,0,1-.91,1.21c-.29.18-.83.17-.85.43s-.15.49,0,.6a4.52,4.52,0,0,1,1.18.62,4.3,4.3,0,0,0,1-.13,3,3,0,0,1,2.27-1.4c-.59.29-1.9.82-1.93,1.36a6.88,6.88,0,0,0,1.49-.2c.28-.3,1-1,1.67-.76a2.63,2.63,0,0,0-1.24.7c.27,0,2-.41,2.25-.19,0,0-2,.36-2.2.38a12.29,12.29,0,0,0,1.8.3,4.52,4.52,0,0,1-2.07-.11,3.43,3.43,0,0,0-1.61.1c.48.55,2.09.65,2.87.72a6,6,0,0,1-2.52-.22c-.42-.15-.52-.47-1-.41s-.68.21-.83,0c.1.38-.13.21.46.35a5,5,0,0,1,1.05.35,4.66,4.66,0,0,0,2.66.62.9.9,0,0,0,.6-.35,4.26,4.26,0,0,0,1.27-.15.62.62,0,0,0,.11-.81c-.19-.43,1-.46.77-1-.13-.36-.8-.59-1.28-.72s-.41-1-1.45-.77a1.85,1.85,0,0,0-.56.2,2.74,2.74,0,0,0-.9-.17c-1.32.23-1.33,1.35-2.38,1.73s-.93,0-.45-.53c.21-.24,1-.39,1.33-.6a1.24,1.24,0,0,0,.63-.82c0-.27-.24-.49-.25-.72.36-.56.07-1.11-1-1.24-.64-.08-.82-1-1.78-.68a1.63,1.63,0,0,0-.85.64c-1.23-.48-1.76,0-1.47.77m-4.83,3c-.64.45.09.56.45.88,0,.52.67.67,1.35.64,1.4-.06,2.49-.69,3.94-.52-.05-.27-.91-.59-1.42-.57a3.16,3.16,0,0,1-2.59.32c.73,0,1.83,0,2.23-.41l-1.26-.32c-.11,0-.43.16-.55.19a2.39,2.39,0,0,1-1.27,0A3.15,3.15,0,0,0,362,69a7.2,7.2,0,0,1-1.93-.51c.05,0,1.77.32,2,.37a1,1,0,0,0-.27-.6c.28.23.32.61.74.71l1.16.28c.16-.42-.5-.94-.91-1.25a1.85,1.85,0,0,1,1.28,1.34,4.61,4.61,0,0,0,.94.22c.64.15.37,0,.89-.25-1.2-.57-1.33-1.54-2.42-2.14a.76.76,0,0,0-.9,0c-1.32-1-1.68.09-2.67.31-1.25.28-1.22,1-.29,1.57" transform="translate(-5.2 -7.55)"/><path class="cls-4" d="M351,72a4,4,0,0,1-.62,1.15c.5.08.54.27.91.08l.89-.46c.26-.14.09-1.18.49-1.52a1.16,1.16,0,0,0,0,1.28l1.46-.75c.09,0,0-.81.14-1a1.28,1.28,0,0,1,.57-.4.93.93,0,0,0-.34,1.2c.26-.14,2-.77,2.05-.88-.2.39-1.45.85-1.89,1.11a2.76,2.76,0,0,0,1.81-.29c-.39.23-1.46.85-2.12.47a5.42,5.42,0,0,0-1.39.8,10.66,10.66,0,0,0,3.14,0c-1.05.77-2.88-.17-3.89.41,0,0-1.19.85-.42.67l1.56-.37c.31-.07,5.78.54,4-.86.69-.18,1.61-.56,1-1.12a2.2,2.2,0,0,0-.56-.34c-.23-.11.16-.55.16-.75,0-1-1.75-.89-2.74-1.14A1.92,1.92,0,0,0,353,69.1c-.71.35-.53.44-1.35.49-1.27.07-.86,1.77-.72,2.36" transform="translate(-5.2 -7.55)"/><path class="cls-4" d="M332.17,73.5c1.41-.63-.34-2.14-1.75-1.51s.34,2.14,1.75,1.51" transform="translate(-5.2 -7.55)"/><path class="cls-4" d="M322.64,66.44c-2.49.73,1.25,2.14,3.5,3.1A4.75,4.75,0,0,1,328,71.3c.37-.24-.14-2-.61-2.36-1.42-.22-2.81-.81-3.24-1.77.62.55,1.89,1.58,3.06,1.4-.24-.49-.48-1-.73-1.48-.06-.13-.25-.23-.5-.33a1.5,1.5,0,0,0,.37,0c-.09-.19-1.2-1.84-1-2s1.27,1.68,1.32,1.77c.1-.13.57-.92.52-1.12a1,1,0,0,1-.32,1.5c0,.42.56,1.05.78,1.46a2.34,2.34,0,0,0,1.25-2.22,2.63,2.63,0,0,1-.11,2.06c-.21.37-.93.55-.73.93.09.17.24.76.47.88s-.1,1,.34,1.07,1.77-.63,1.77-.63a5.29,5.29,0,0,0,1.17-.54,2.78,2.78,0,0,1,1.72-2.83c-.51.63-1.76,1.87-1.32,2.65A7.54,7.54,0,0,0,334,69c.1-.52.35-1.77,1.51-1.7-.68.36-.77.93-1,1.46.32-.15,2.31-1.33,2.78-1.1.05,0-2.35,1.26-2.54,1.35a16.07,16.07,0,0,0,2.63-.24,5.58,5.58,0,0,1-2.82.6c-.77-.11-1.42.44-2,.74,1.13.6,3.32.15,4.4,0a7.58,7.58,0,0,1-3.49.62c-.69-.07-1.11-.48-1.63-.22-.36.18-2.52,1.29-2.91,1,.48.51,3.74-.42,4.41-.3l.48.08a8.76,8.76,0,0,1,2.71-.44,4.17,4.17,0,0,1,.68-.24l.66-.17v0a4.35,4.35,0,0,0,1.54-.68c.2-.4-.19-.86-.58-1.19-.63-.54.85-1,.13-1.69a4,4,0,0,0-2.32-.56c-.93,0-1.41-1.23-2.59-.56a1.8,1.8,0,0,0-.56.49,4.13,4.13,0,0,0-1.34.09c-1.52.82-.53,2.41-1.57,3.34s-1.2.37-1.06-.58c.06-.42,1-.92,1.21-1.35a1.43,1.43,0,0,0,.1-1.39c-.19-.39-.74-.61-1-.93,0-.93-.9-1.6-2.37-1.41-.92.12-1.94-1.08-2.94-.31a1.53,1.53,0,0,0-.54,1.22C321.84,64.58,321.57,65.43,322.64,66.44Zm2.65.09c-.56-.19-1.14-.43-1.27-.86A5.52,5.52,0,0,0,325.29,66.53Z" transform="translate(-5.2 -7.55)"/><path class="cls-4" d="M317,69.61a2,2,0,0,0-1,.6c-.47.67,1,.77,1.17,1.21.25.7,1.17.89,2.09.63.38,0,.76.19,1.2.16a2.78,2.78,0,0,0,1.35-.46c.35-.23.58-.78,1-.93.9-.34,1.46-.39.89.3s-2.46.76-2.82,1.68a1.06,1.06,0,0,0,.3.62,1.06,1.06,0,0,0-.32.39c-.32.72,1,.57,1.31,1a1.92,1.92,0,0,0,1.23.86c.88.12.91-.67,1.63-.55a2.11,2.11,0,0,0,1.35-.1c.21-.12.25-.89.22-.88h0c0-.11,0-.23,0-.34a1.17,1.17,0,0,1,0-.37,2.19,2.19,0,0,1-.37-1.32l-.22-.19c-.31-.26-.36-2-1-2,.36.1-.09,1.38-.17,1.59s.43.37.7.65a1.93,1.93,0,0,1,.42,1.72c-.13-.53-.33-1.63-1.26-2-.12.35-.47.8-.13,1.11a1.39,1.39,0,0,1,.24,1.42,3.82,3.82,0,0,0-.54-1.23c0,.11-.55,1.53-.58,1.52-.36-.14.21-1.37.27-1.55-.45.26-1,.46-1.14.87-.41-.49.74-1,1.23-1.17.24-.23.21-.75.29-1-.9,0-1.75,1-2.22,1.36a3,3,0,0,1,2.28-1.59c.15-.15.14-.5.19-.68,0,0,.37-.78.1-1s-1.12.28-1.16.17a4.25,4.25,0,0,0-1,0c-.43,0-.4.39-.7.59a5.36,5.36,0,0,1-2,.66c.76-.24,1.64-.62,1.82-1.2a8.26,8.26,0,0,0-1.67.09,1.62,1.62,0,0,1-1.38.58,4,4,0,0,0,.95-.56c-.1,0-2.22.1-2.13-.06a11.4,11.4,0,0,1,2.25-.16,1.17,1.17,0,0,0-.16-.15,1,1,0,0,0,.47.13l1.68-.12c-.17-.57-1.55-.82-2.28-.94a3.6,3.6,0,0,1,2.69.91,5.39,5.39,0,0,0,2.5-.43,6.75,6.75,0,0,1-2.27-.28c-1.6-.71-4.09-1.94-4.08-.63C316.84,68.39,316.08,68.76,317,69.61Zm.83-.21a2,2,0,0,1,1.23.31A6.93,6.93,0,0,0,317.79,69.4Z" transform="translate(-5.2 -7.55)"/><path class="cls-4" d="M317.63,63c-.87-.17-.65.24-.86.52-.65.17-.51.57-.13.9.77.69,2.08,1,2.58,1.83.31-.12.28-.66,0-.91-.84-.19-1.57-.62-1.67-1.21a2.54,2.54,0,0,0,1.6,1c-.08-.25-.15-.5-.23-.75,0-.06-.41-.16-.51-.21a1,1,0,0,1-.58-.66,2.19,2.19,0,0,0,1,.69c-.07-.25-.5-.92-.33-1.15,0,0,.48,1,.52,1.13a1.62,1.62,0,0,0,.61-.34c-.15.22-.6.37-.52.61s.15.46.23.68a1.52,1.52,0,0,0,1.1-.88c.06.48-.45.87-1,1.1-.05.13.14.42.19.55.13.38.23.18.74.37.11-.8,1.25-1.19,1.46-2,.06-.22-.09-.43-.46-.45.58-1-.93-.83-1.7-1.25-.93-.54-1.79-.29-2.05.38" transform="translate(-5.2 -7.55)"/><path class="cls-4" d="M358.05,64.36c-.26.26-2,.45-2.56.72a14.06,14.06,0,0,1,2.33,0c.47,0,.6-.29.94-.47a6,6,0,0,1,2.3-.56,7.68,7.68,0,0,0-2.58,1l1.82-.17c.31,0,.26-.1.46-.23a3.66,3.66,0,0,1,1.78-.4,5.39,5.39,0,0,0-1.78.59c.12,0,2.39-.15,2.29-.09a14.51,14.51,0,0,1-2.3.24,3.44,3.44,0,0,0,1.85.36,2.81,2.81,0,0,1-2.14-.33,12.27,12.27,0,0,0-2,.21c.4.44,1.82.61,2.74.72a6.56,6.56,0,0,1-2.56-.28c-.52-.21-.35-.42-1.14-.34a6,6,0,0,1-2.2,0,10.55,10.55,0,0,0,2.41.53c1.32.33,2.85,1,3.92.45.5-.25.62-.12,1.3-.32.34-.1.5-.28.53-.44s.31-.25.74-.55c.7-.48-.18-.59-.54-.87.07-.53-.73-.77-1.83-.67-.76.06-1-.23-1.91.08a7.94,7.94,0,0,0-1.85.88" transform="translate(-5.2 -7.55)"/><path class="cls-4" d="M331.13,86.77c.26-.15,1.67,0,2.18,0a12.06,12.06,0,0,1-1.85-.47c-.38-.06-.54.11-.85.18a4.9,4.9,0,0,1-1.94,0,6.47,6.47,0,0,0,2.25-.23l-1.48-.24c-.26,0-.23,0-.41.08a3,3,0,0,1-1.5,0,4.62,4.62,0,0,0,1.53-.09c-.09,0-1.93-.38-1.83-.4a12.38,12.38,0,0,1,1.87.29,2.91,2.91,0,0,0-1.39-.67,2.31,2.31,0,0,1,1.63.71,11.4,11.4,0,0,0,1.65.26c-.22-.43-1.31-.86-2-1.14a5.3,5.3,0,0,1,2,.76c.37.27.19.41.83.51a4.68,4.68,0,0,1,1.74.47,8.78,8.78,0,0,0-1.8-.92c-1-.53-2-1.38-3-1.17a6.82,6.82,0,0,1-1.1,0c-.29,0-.45.11-.51.24s-.3.14-.7.28c-.65.24,0,.51.24.8-.17.41.42.76,1.31.91.61.11.72.38,1.53.33a8.85,8.85,0,0,0,1.67-.36" transform="translate(-5.2 -7.55)"/><path class="cls-4" d="M340.29,85.9c.27-.24,1.26-.2,1.8-.27-.39-.36-.68-.41-1.58-.45-.51,0-.64.23-1,.37a5.89,5.89,0,0,1-2.48.26,7.32,7.32,0,0,0,2.77-.66l-2-.09c-.34,0-.28.07-.49.17a3.59,3.59,0,0,1-1.92.17,5.06,5.06,0,0,0,1.91-.37c-.13,0-2.6-.2-2.49-.24a15.38,15.38,0,0,1,2.49.09,4.3,4.3,0,0,0-2-.66,3.44,3.44,0,0,1,2.34.67,14.25,14.25,0,0,0,2.19.08c-.45-.54-2-.93-3-1.19a7.72,7.72,0,0,1,2.76.67c.57.3.13.64,1,.62a2.58,2.58,0,0,1,1.4.16c-.3-.63-4.08-2.46-5.61-1.89-.53.2-.67,0-1.4.15-.37.06-.54.22-.57.4s-.33.23-.78.48c-.74.42.22.67.62,1-.06.57.83.94,2,1,.82,0,1.06.39,2.07.2a8,8,0,0,0,2-.69" transform="translate(-5.2 -7.55)"/><path class="cls-4" d="M319,79.55c-.38-.22-.52-1.82-.63-2.18-.43,1-.68,1-.5,1.89.07.33.36.45.57.72a1.91,1.91,0,0,1,.41,1.64,3.33,3.33,0,0,0-1-1.91c-.05.42-.1.83-.14,1.25,0,.22.1.19.27.35a1.19,1.19,0,0,1,.27,1.26c-.09-.41-.18-1-.57-1.3a8.79,8.79,0,0,1-.38,1.55c-.19-.21.11-1.3.13-1.58a1.74,1.74,0,0,0-1,1.17A1.34,1.34,0,0,1,317.42,81c.2-.26.09-1.06.12-1.39-.84.18-1.45,1.1-1.85,1.69a2.65,2.65,0,0,1,1.07-1.66c.47-.31.66-.23.71-.77a3.44,3.44,0,0,1,.63-1.6c-1.33,1-3.67,2.72-3.09,4.24.16.41.05.44.24.93a.79.79,0,0,0,.62.44c.48.09.35.25.75.59.65.56,1,0,1.6-.19a1.25,1.25,0,0,0,1.56-1.09c.07-.52.61-.6.31-1.29A4.84,4.84,0,0,0,319,79.55" transform="translate(-5.2 -7.55)"/><path class="cls-4" d="M366.85,77c-.09-.46.64-1.1,1.08-1.52-.93-.2-1,0-1.94.5-.57.29-.32.67-.49,1.07a4.14,4.14,0,0,1-2.16,1.85c.82-.72,1.88-1.7,1.86-2.51L363,77.48c-.38.19-.19.25-.25.52-.13.58-.87,1.06-1.73,1.39.55-.45,1.45-1.11,1.42-1.63A29.26,29.26,0,0,1,359.54,79c.12-.33,2.22-1.18,2.7-1.43a6.16,6.16,0,0,0-3.08.44,4.69,4.69,0,0,1,3.43-.62A12,12,0,0,0,365,76.13c-1.27-.38-3.45.1-4.88.4a9.74,9.74,0,0,1,3.91-.88c1,0,1.18.38,2.1-.11s.82-.36.79-1c-1.86.85-7.21.1-7.94,1.73-.26.57-.65.45-1.21,1a.54.54,0,0,0,0,.83c.42.41,0,.48-.08,1.06-.14,1,1.22.67,2.17.87.79.72,2.26.63,3.58,0,.91-.45,1.69-.17,2.43-1a4.92,4.92,0,0,0,1-2.07" transform="translate(-5.2 -7.55)"/><path class="cls-4" d="M348,68.38c.27-.12,2.77.21,5.38,0s5.32-.77,6.13-1.38a23.39,23.39,0,0,1-7.7.91,22.51,22.51,0,0,1-3.11-.38,5.61,5.61,0,0,0-1.83.18,10.15,10.15,0,0,1-4.28-.73,11.75,11.75,0,0,0,5,.34,30.25,30.25,0,0,1-3.05-.78c-.51-.16-.48,0-.91,0a6.32,6.32,0,0,1-3.1-.89,9,9,0,0,0,3.26.67,18.85,18.85,0,0,1-3.35-1.6c.52.1,2.81,1.25,3.49,1.43a6.39,6.39,0,0,0-2.18-1.7,5.07,5.07,0,0,1,2.65,1.85,14.87,14.87,0,0,0,3.33.84c-.46-.74-2.44-1.66-3.51-2.38a19,19,0,0,1,3.44,1.73c.71.49.35.72,1.7.92s6.27.69,9.73-.65c-3.45.68-7.23.65-9.31-.08-2.91-1-4.24-2.57-5.75-2.59-.86,0-.87-.26-1.89-.52a1.62,1.62,0,0,0-1.18,0c-.46.25-.7,0-1.6-.08-1.51-.19-.67.7-.56,1.31-.85.43,0,1.48,1.9,2.31,1.31.54,1.42,1.07,3.38,1.34a12.91,12.91,0,0,0,3.94-.11" transform="translate(-5.2 -7.55)"/><path class="cls-4" d="M315.81,64.92c.13.32,1.67,1,2.1,1.42a14.07,14.07,0,0,0-2.18-.7c-.42-.18-.44-.45-.69-.71a5.2,5.2,0,0,0-1.92-1.19,6.68,6.68,0,0,1,2,1.66l-1.64-.68c-.28-.12-.2-.17-.34-.35a3.17,3.17,0,0,0-1.5-.89,4.64,4.64,0,0,1,1.43,1.07c-.11,0-2.18-.83-2.11-.75a13.7,13.7,0,0,0,2.06.89,3.49,3.49,0,0,1-1.88-.2,2.86,2.86,0,0,0,2.15.31,11.63,11.63,0,0,1,1.81.78,6.08,6.08,0,0,1-2.87-.12,6.51,6.51,0,0,0,2.52.48c.57,0,.51-.29,1.21,0a5.74,5.74,0,0,0,2.07.63,10.37,10.37,0,0,1-2.48-.2c-1.38-.08-3.08.1-3.86-.71-.36-.38-.54-.29-1.09-.68-.28-.2-.36-.4-.32-.57s-.19-.33-.46-.72c-.45-.65.42-.5.87-.66.16-.52,1-.51,2-.1.68.28,1,.06,1.76.62a6.87,6.87,0,0,1,1.34,1.36" transform="translate(-5.2 -7.55)"/></svg>